<svg xmlns="http://www.w3.org/2000/svg" width="40" height="40" viewBox="0 0 40 40">
    <path fill="#383F4A" fill-rule="evenodd" d="M32 36c-2.206 0-4-1.794-4-4s1.794-4 4-4 4 1.794 4 4-1.794 4-4 4M8 24c-2.206 0-4-1.794-4-4s1.794-4 4-4 4 1.794 4 4-1.794 4-4 4M32 4c2.206 0 4 1.794 4 4s-1.794 4-4 4-4-1.794-4-4 1.794-4 4-4m0 20c-2.4 0-4.532 1.084-6 2.764l-10.182-5.092c.116-.54.182-1.098.182-1.672 0-.574-.066-1.132-.182-1.672L26 13.236C27.468 14.916 29.6 16 32 16c4.412 0 8-3.588 8-8s-3.588-8-8-8c-4.41 0-8 3.588-8 8 0 .574.068 1.132.182 1.672L14 14.764C12.532 13.084 10.4 12 8 12c-4.41 0-8 3.588-8 8s3.59 8 8 8c2.4 0 4.532-1.084 6-2.764l10.182 5.092A8.08 8.08 0 0 0 24 32c0 4.412 3.59 8 8 8 4.412 0 8-3.588 8-8s-3.588-8-8-8"/>
</svg>
