<svg xmlns="http://www.w3.org/2000/svg" width="24" height="24" viewBox="0 0 24 24">
    <g fill="none" fill-rule="evenodd" opacity=".5">
        <circle cx="12" cy="12" r="10.964" stroke="#D2E3EE" stroke-width="2.071"/>
        <path fill="#D2E3EE" fill-rule="nonzero" d="M8.098 17.5a.225.225 0 1 1-.118-.42c.489-.29.684-.735.606-1.39h-.945c-.629 0-1.141-.507-1.141-1.13V9.13C6.5 8.507 7.012 8 7.641 8h8.718c.629 0 1.141.507 1.141 1.131v5.429c0 .623-.512 1.13-1.141 1.13h-5.594c-.68 1.63-2.083 1.81-2.667 1.81zm1.902-6a.5.5 0 1 0 0 1 .5.5 0 0 0 0-1zm2 0a.5.5 0 1 0 0 1 .5.5 0 0 0 0-1zm2 0a.5.5 0 1 0 0 1 .5.5 0 0 0 0-1z"/>
    </g>
</svg>
