<svg xmlns="http://www.w3.org/2000/svg" width="32" height="32" viewBox="0 0 32 32">
    <g fill="none" fill-rule="evenodd" opacity=".8">
        <circle cx="16" cy="16" r="15" stroke="#D2E3EE" stroke-width="2"/>
        <path d="M8 6.667h16v16H8z"/>
        <path fill="#D2E3EE" fill-rule="nonzero" d="M21.333 18.667c.737 0 1.327-.597 1.327-1.334l.007-6.666c0-.737-.597-1.334-1.334-1.334H10.667c-.737 0-1.334.597-1.334 1.334v6.666c0 .737.597 1.334 1.334 1.334a1.85 1.85 0 0 0-1.755 1.265l-.245.735a1.52 1.52 0 0 0 1.441 2h11.784a1.52 1.52 0 0 0 1.441-2l-.245-.735a1.85 1.85 0 0 0-1.755-1.265zm-10.666-8h10.666v6.666H10.667v-6.666z"/>
    </g>
</svg>
