<svg xmlns="http://www.w3.org/2000/svg" width="44" height="40" viewBox="0 0 44 40">
    <g fill="#383F4A" fill-rule="evenodd">
        <path d="M16 24.16c1.676-1.439 4-3.955 4-6.16 0-2.207-1.794-4-4-4s-4 1.793-4 4c0 2.205 2.322 4.721 4 6.16"/>
        <path d="M19.553 36l11.104-11.104 9.338 9.336V36H19.553zM4 27.21L12.789 36H4v-8.79zM4 8V4h12.006l-.018.018 14.944 14.946L16.17 33.726 4 21.554V8zm35.998-4H40l-.002 4v1.9l-6.238 6.236L21.627 4h18.372zm-.002 11.556l-.002 13.02-6.51-6.508 6.512-6.512zM40 0H4C1.795 0 0 1.794 0 4v32c0 2.208 1.794 4 4 4h36c2.204 0 4-1.792 4-4V4c0-2.206-1.796-4-4-4z"/>
    </g>
</svg>
