<svg xmlns="http://www.w3.org/2000/svg" width="43" height="43" viewBox="0 0 43 43">
    <g fill="#383F4A" fill-rule="evenodd">
        <path d="M26.826 18.168c.74-.63 1.046-1.51 1.046-2.486 0-1.968-1.142-3.332-4.476-3.332h-2.39l5.82 5.818zM20.888 17.887v1.256h1.254z"/>
        <path d="M20.888 26.889v4.222h-4.064v-4.222h-2.666v-2.73h2.666v-2.286h-2.666v-2.73h2.328l4.402 4.402v.614h.614l2.73 2.73h-3.344zM43 40.001l-5.858-5.86-9.524-9.522-.46-.46h.002l-2.31-2.308-8.026-8.028-7.966-7.966L3 .001.172 2.829 6.32 8.975A19.907 19.907 0 0 0 3 20.001c0 11.046 8.954 20 20 20 4.076 0 7.862-1.228 11.024-3.32l6.148 6.148L43 40.001zM24.35 8.889c4.285 0 7.491 1.968 7.491 6.414 0 2.634-1.126 4.278-2.616 5.264l10.456 10.456A19.903 19.903 0 0 0 43 20.001c0-11.046-8.954-20-20-20a19.899 19.899 0 0 0-11.024 3.318l5.57 5.57h6.804z"/>
    </g>
</svg>
