<svg xmlns="http://www.w3.org/2000/svg" width="44" height="40" viewBox="0 0 44 40">
    <g fill="#383F4A" fill-rule="evenodd">
        <path d="M16 16c-2.206 0-4 1.794-4 4s2.322 4.72 4 6.16c1.676-1.438 4-3.954 4-6.16s-1.794-4-4-4"/>
        <path d="M39.995 36H4V12H39.999l-.004 24zM4 8h6V4H4v4zm10 0h6V4h-6v4zm10-4h16l-.002 4H24V4zm16-4H4C1.795 0 0 1.794 0 4v32c0 2.208 1.794 4 4 4h36c2.204 0 4-1.792 4-4V4c0-2.206-1.796-4-4-4z"/>
        <path d="M16.17 31.726L6 21.556v5.656L12.788 34h6.764l11.106-11.104 7.34 7.34V24.58l-4.512-4.512 4.512-4.514V14h-4.102z"/>
    </g>
</svg>
