<svg xmlns="http://www.w3.org/2000/svg" width="42" height="38" viewBox="0 0 42 38">
    <g fill="#262C37" fill-rule="evenodd">
        <path d="M4.213 14.74h33.684a2.103 2.103 0 0 0 2.106-2.104V9.79c0-.83-.489-1.585-1.251-1.922L21.91.383a2.103 2.103 0 0 0-1.71 0L3.358 7.869a2.102 2.102 0 0 0-1.25 1.922v2.845c0 1.164.943 2.105 2.105 2.105M41.185 35.127l-.701-2.105a2.11 2.11 0 0 0-1.998-1.44H35.79V16.845h-4.21v14.737h-4.21V16.845H23.16v14.737h-4.21V16.845h-4.211v14.737h-4.211V16.845h-4.21v14.737H3.624c-.905 0-1.71.581-1.996 1.44l-.703 2.105a2.09 2.09 0 0 0 .29 1.895c.396.552 1.03.876 1.706.876h36.265c.676 0 1.314-.324 1.707-.876.396-.545.503-1.25.29-1.895"/>
    </g>
</svg>
