<svg xmlns="http://www.w3.org/2000/svg" xmlns:xlink="http://www.w3.org/1999/xlink" width="189" height="56" viewBox="0 0 189 56">
    <defs>
        <path id="a" d="M0 0h189v56H0z"/>
        <path id="c" d="M0 56h189V0H0z"/>
        <linearGradient id="f" x1="0%" y1="50%" y2="50%">
            <stop offset="0%" stop-color="#00DFFF"/>
            <stop offset="100%" stop-color="#00B0FF"/>
        </linearGradient>
        <path id="e" d="M1.027 1.961V32.9c0 .84.279 1.539.7 1.96l.14.14 17.36-17.36v-.28L1.727 0c-.421.42-.7 1.12-.7 1.961"/>
        <linearGradient id="i" x1="4.735%" y1="50%" y2="50%">
            <stop offset="0%" stop-color="#FFB901"/>
            <stop offset="100%" stop-color="#FFE100"/>
        </linearGradient>
        <path id="h" d="M.56 6.86v.42l5.74 5.74 7-3.78c1.96-1.12 1.96-2.94 0-4.06L6.441 1.26 6.3 1.12.56 6.86z"/>
        <linearGradient id="l" x1="86.305%" x2="-49.967%" y1="17.74%" y2="194.328%">
            <stop offset="0%" stop-color="#FF3A44"/>
            <stop offset="100%" stop-color="#C31162"/>
        </linearGradient>
        <path id="k" d="M.56 17.5c.7.699 1.68.699 2.94.14L23.941 5.88 18.06 0 .56 17.5z"/>
        <linearGradient id="o" x1="86.619%" x2="0%" y1="83.201%" y2="0%">
            <stop offset="0%" stop-color="#0EDA74"/>
            <stop offset="100%" stop-color="#1CEA6A"/>
        </linearGradient>
        <path id="n" d="M.56 1.307l17.5 17.36 5.881-5.88L3.5 1.167C2.933.852 2.422.706 1.967.706c-.553 0-1.022.216-1.407.6"/>
    </defs>
    <g fill="none" fill-rule="evenodd">
        <g>
            <mask id="b" fill="#fff">
                <use xlink:href="#a"/>
            </mask>
            <path fill="#000" d="M7 56c-3.92 0-7-3.08-7-7V7c0-3.92 3.08-7 7-7h175c3.92 0 7 3.08 7 7v42c0 3.92-3.08 7-7 7H7z" mask="url(#b)"/>
            <path fill="#FFF" d="M105.84 18.2V9.8h1.26l4.06 6.58V9.8h1.12v8.4h-1.12l-4.34-6.86v6.86h-.98zm-8.12-1.82c.56.56 1.4.98 2.24.98.84 0 1.68-.28 2.24-.98.56-.56.98-1.4.98-2.38s-.28-1.82-.98-2.38c-.56-.56-1.4-.98-2.24-.98-.84 0-1.68.28-2.24.98-.56.56-.98 1.4-.98 2.38s.28 1.82.98 2.38zm5.32.7c-.84.84-1.82 1.26-3.08 1.26s-2.24-.42-3.08-1.26c-.84-.84-1.26-1.82-1.26-3.08s.42-2.24 1.26-3.08c.84-.84 1.82-1.26 3.08-1.26s2.24.42 3.08 1.26c.84.84 1.26 1.82 1.26 3.08s-.42 2.24-1.26 3.08zm-13.3 1.12h-1.12v-7.42h-2.38V9.8h5.74v.98H89.6v7.42h.14zm-5.88 0h1.12V9.8h-1.12v8.4zm-6.44 0H76.3v-7.42h-2.38V9.8h5.88v.98h-2.38v7.42zm-4.62-7.42h-3.78v2.66h3.5v.98h-3.5v2.66h3.78v1.12h-4.9V9.8h4.9v.98zm-6.44 3.5c0 1.12-.28 2.1-.98 2.8-.84.84-1.82 1.26-3.08 1.26s-2.24-.42-3.08-1.26c-.84-.84-1.26-1.82-1.26-3.08s.42-2.24 1.26-3.08c.84-.84 1.82-1.26 3.08-1.26.56 0 1.12.14 1.68.42.56.28.98.56 1.26.98l-.7.7c-.56-.7-1.26-.98-2.24-.98-.84 0-1.68.28-2.24.98-.56.7-.98 1.4-.98 2.38s.28 1.82.98 2.38c.7.56 1.4.98 2.24.98.98 0 1.68-.28 2.38-.98.42-.42.7-.98.7-1.68H62.3v-.98h4.06v.42z"/>
            <path stroke="#FFF" stroke-width=".2" d="M105.84 18.2V9.8h1.26l4.06 6.58V9.8h1.12v8.4h-1.12l-4.34-6.86v6.86h-.98zm-8.12-1.82c.56.56 1.4.98 2.24.98.84 0 1.68-.28 2.24-.98.56-.56.98-1.4.98-2.38s-.28-1.82-.98-2.38c-.56-.56-1.4-.98-2.24-.98-.84 0-1.68.28-2.24.98-.56.56-.98 1.4-.98 2.38s.28 1.82.98 2.38zm5.32.7c-.84.84-1.82 1.26-3.08 1.26s-2.24-.42-3.08-1.26c-.84-.84-1.26-1.82-1.26-3.08s.42-2.24 1.26-3.08c.84-.84 1.82-1.26 3.08-1.26s2.24.42 3.08 1.26c.84.84 1.26 1.82 1.26 3.08s-.42 2.24-1.26 3.08zm-13.3 1.12h-1.12v-7.42h-2.38V9.8h5.74v.98H89.6v7.42h.14zm-5.88 0h1.12V9.8h-1.12v8.4zm-6.44 0H76.3v-7.42h-2.38V9.8h5.88v.98h-2.38v7.42zm-4.62-7.42h-3.78v2.66h3.5v.98h-3.5v2.66h3.78v1.12h-4.9V9.8h4.9v.98zm-6.44 3.5c0 1.12-.28 2.1-.98 2.8-.84.84-1.82 1.26-3.08 1.26s-2.24-.42-3.08-1.26c-.84-.84-1.26-1.82-1.26-3.08s.42-2.24 1.26-3.08c.84-.84 1.82-1.26 3.08-1.26.56 0 1.12.14 1.68.42.56.28.98.56 1.26.98l-.7.7c-.56-.7-1.26-.98-2.24-.98-.84 0-1.68.28-2.24.98-.56.7-.98 1.4-.98 2.38s.28 1.82.98 2.38c.7.56 1.4.98 2.24.98.98 0 1.68-.28 2.38-.98.42-.42.7-.98.7-1.68H62.3v-.98h4.06v.42z"/>
            <mask id="d" fill="#fff">
                <use xlink:href="#c"/>
            </mask>
            <path fill="#FFF" d="M149.66 42h2.66V24.5h-2.66V42zm23.52-11.2l-2.94 7.56h-.14l-3.08-7.56h-2.8l4.62 10.64-2.66 5.88h2.66l7.14-16.52h-2.8zm-14.7 9.24c-.84 0-2.1-.42-2.1-1.54 0-1.4 1.54-1.82 2.8-1.82 1.12 0 1.68.28 2.38.56-.28 1.68-1.68 2.8-3.08 2.8zm.28-9.66c-1.96 0-3.92.84-4.62 2.66l2.38.98c.56-.98 1.4-1.26 2.38-1.26 1.4 0 2.66.84 2.8 2.24v.14c-.42-.28-1.54-.7-2.66-.7-2.52 0-5.04 1.4-5.04 3.92 0 2.38 2.1 3.92 4.34 3.92 1.82 0 2.66-.84 3.36-1.68h.14V42h2.52v-6.72c-.28-3.08-2.66-4.9-5.6-4.9zm-16.1 2.52h-3.78v-6.02h3.78c1.96 0 3.08 1.68 3.08 2.94-.14 1.54-1.26 3.08-3.08 3.08zm-.14-8.4h-6.3V42h2.66v-6.58h3.64c2.94 0 5.74-2.1 5.74-5.46s-2.8-5.46-5.74-5.46zm-34.16 15.54c-1.82 0-3.36-1.54-3.36-3.64s1.54-3.64 3.36-3.64c1.82 0 3.22 1.54 3.22 3.64s-1.4 3.64-3.22 3.64zm3.08-8.26c-.7-.7-1.82-1.4-3.22-1.4-2.94 0-5.74 2.66-5.74 6.02 0 3.36 2.66 5.88 5.74 5.88 1.4 0 2.52-.7 3.08-1.4h.14v.84c0 2.24-1.26 3.5-3.22 3.5-1.54 0-2.66-1.12-2.94-2.1l-2.24.98c.7 1.54 2.38 3.5 5.32 3.5 3.08 0 5.6-1.82 5.6-6.16V30.8h-2.52v.98zm4.2 10.22h2.66V24.5h-2.66V42zm6.58-5.74c0-2.24 1.82-3.5 3.08-3.5.98 0 1.96.56 2.24 1.26l-5.32 2.24zm8.12-1.96c-.56-1.4-1.96-3.78-5.04-3.78s-5.6 2.38-5.6 6.02c0 3.36 2.52 6.02 5.88 6.02 2.66 0 4.34-1.68 4.9-2.66l-2.1-1.4c-.7.98-1.54 1.68-2.94 1.68s-2.24-.56-2.94-1.82l7.98-3.36-.14-.7zm-63.56-1.96v2.52h6.02c-.14 1.4-.7 2.52-1.4 3.22-.84.84-2.24 1.82-4.62 1.82-3.78 0-6.58-2.94-6.58-6.72s2.94-6.72 6.58-6.72c1.96 0 3.5.84 4.62 1.82l1.82-1.82c-1.54-1.4-3.5-2.52-6.3-2.52-5.04 0-9.38 4.2-9.38 9.24s4.34 9.24 9.38 9.24c2.8 0 4.76-.84 6.44-2.66 1.68-1.68 2.24-4.06 2.24-5.88 0-.56 0-1.12-.14-1.54h-8.68zm15.54 7.7c-1.82 0-3.36-1.54-3.36-3.64s1.54-3.64 3.36-3.64c1.82 0 3.36 1.4 3.36 3.64 0 2.1-1.54 3.64-3.36 3.64zm0-9.52c-3.36 0-6.02 2.52-6.02 6.02 0 3.36 2.66 6.02 6.02 6.02 3.36 0 6.02-2.52 6.02-6.02 0-3.64-2.66-6.02-6.02-6.02zm13.02 9.52c-1.82 0-3.36-1.54-3.36-3.64s1.54-3.64 3.36-3.64c1.82 0 3.36 1.4 3.36 3.64 0 2.1-1.54 3.64-3.36 3.64zm0-9.52c-3.36 0-6.02 2.52-6.02 6.02 0 3.36 2.66 6.02 6.02 6.02 3.36 0 6.02-2.52 6.02-6.02 0-3.64-2.66-6.02-6.02-6.02z" mask="url(#d)"/>
        </g>
        <g transform="translate(12.833 10.5)">
            <mask id="g" fill="#fff">
                <use xlink:href="#e"/>
            </mask>
            <use fill="url(#f)" xlink:href="#e"/>
            <path fill="url(#f)" d="M1.027 1.961V32.9c0 .84.279 1.539.7 1.96l.14.14 17.36-17.36v-.28L1.727 0c-.421.42-.7 1.12-.7 1.961" mask="url(#g)"/>
        </g>
        <g transform="translate(31.5 21)">
            <mask id="j" fill="#fff">
                <use xlink:href="#h"/>
            </mask>
            <use fill="url(#i)" xlink:href="#h"/>
            <path fill="url(#i)" d="M.56 6.86v.42l5.74 5.74 7-3.78c1.96-1.12 1.96-2.94 0-4.06L6.441 1.26 6.3 1.12.56 6.86z" mask="url(#j)"/>
        </g>
        <g transform="translate(14 28)">
            <mask id="m" fill="#fff">
                <use xlink:href="#k"/>
            </mask>
            <use fill="url(#l)" xlink:href="#k"/>
            <path fill="url(#l)" d="M.56 17.5c.7.699 1.68.699 2.94.14L23.941 5.88 18.06 0 .56 17.5z" mask="url(#m)"/>
        </g>
        <g transform="translate(14 9.333)">
            <mask id="p" fill="#fff">
                <use xlink:href="#n"/>
            </mask>
            <use fill="url(#o)" xlink:href="#n"/>
            <path fill="url(#o)" d="M.56 1.307l17.5 17.36 5.881-5.88L3.5 1.167C2.933.852 2.422.706 1.967.706c-.553 0-1.022.216-1.407.6" mask="url(#p)"/>
        </g>
    </g>
</svg>
