<svg xmlns="http://www.w3.org/2000/svg" viewBox="0 0 32 32">
    <g fill="none" fill-rule="evenodd" opacity=".8">
        <circle cx="16" cy="16" r="15" stroke="#D2E3EE" stroke-width="2"/>
        <path fill="#D2E3EE" fill-rule="nonzero" d="M18.667 21.333c.733 0 1.333.6 1.333 1.334C20 23.4 19.4 24 18.667 24c-.734 0-1.334-.6-1.334-1.333 0-.734.6-1.334 1.334-1.334zm4-10.666V12h-1.334l-2.4 5.067.934 1.6c.066.2.133.466.133.666 0 .734-.6 1.334-1.333 1.334h-8v-1.334H18.4a.143.143 0 0 0 .133-.133v-.067l-.6-1.133H13c-.533 0-.933-.267-1.133-.667L9.467 13c-.134-.133-.134-.2-.134-.333 0-.4.267-.667.667-.667h9.867l.6-1.333h2.2zM12 21.333c.733 0 1.333.6 1.333 1.334 0 .733-.6 1.333-1.333 1.333s-1.333-.6-1.333-1.333c0-.734.6-1.334 1.333-1.334z"/>
    </g>
</svg>
