<svg xmlns="http://www.w3.org/2000/svg" viewBox="0 0 40 40">
    <g fill="none" fill-rule="evenodd">
        <circle cx="20" cy="20" r="20" fill="#262C37" opacity=".05"/>
        <g fill="#FFF" fill-rule="nonzero">
            <path d="M25.587 15.577H15.41v2.177c-.016.083-.041.31.065.59.112.296.4.713 1.137 1.024.091.04.182.076.27.113 1.145.473 1.836.758 1.594 2.524l-.111.802c-.401 2.89-.755 5.538-.678 6.199.16 1.366 1.454 1.988 2.589 1.988.073 0 .147-.002.22-.007.072.005.146.007.22.007 1.137 0 2.433-.622 2.593-1.988.077-.661-.276-3.31-.677-6.198l-.111-.803c-.243-1.766.449-2.051 1.594-2.524l.27-.113c.736-.31 1.024-.728 1.136-1.023.107-.28.081-.508.066-.591v-2.177zM25.037 9.002H15.96a.957.957 0 0 0-.957.955v.01l.423 4.232h10.147l.422-4.232v-.01a.957.957 0 0 0-.957-.955z"/>
        </g>
    </g>
</svg>
