<svg xmlns="http://www.w3.org/2000/svg" viewBox="0 0 40 40">
    <g fill="none" fill-rule="evenodd" opacity=".2">
        <circle cx="20" cy="20" r="20" fill="#00BAB6"/>
        <g fill="#000" fill-rule="nonzero">
            <path d="M20.482 26.356a3.476 3.476 0 0 0 2.946-1.65 2.591 2.591 0 0 1-.853-1.932c0-.769.33-1.46.853-1.93a3.476 3.476 0 0 0-2.946-1.65c-1.931 0-3.497 1.603-3.497 3.58 0 1.978 1.566 3.582 3.497 3.582z"/>
            <path d="M13.002 29.283v1.133c0 .322.238.584.553.584h13.851a.592.592 0 0 0 .587-.584V15.012H13.002v14.271zm7.49-11.42c2.649 0 4.796 2.2 4.796 4.911 0 2.713-2.147 4.912-4.796 4.912-2.649 0-4.796-2.2-4.796-4.912 0-2.712 2.147-4.91 4.796-4.91zM27.44 10.007h-4.416v3.692h4.97V10.59c0-.322-.24-.584-.554-.584zM21.84 10.007h-8.268a.578.578 0 0 0-.57.584V13.7h8.838v-3.692zm-2.494 2.533h-4.231a.662.662 0 0 1-.654-.67c0-.37.292-.67.654-.67h4.23c.362 0 .655.3.655.67 0 .37-.293.67-.654.67z"/>
        </g>
    </g>
</svg>
