<svg xmlns="http://www.w3.org/2000/svg" viewBox="0 0 40 40">
    <g fill="none" fill-rule="evenodd" opacity=".2">
        <circle cx="20" cy="20" r="20" fill="#9FE354"/>
        <g fill="#000" fill-rule="nonzero">
            <path d="M20.64 17.461c-1.094-.095-4.362.82-6.37 3.994-2.225 3.521-3.069 7.673-1.18 8.784 1.89 1.112 3.07.903 4.756.013 1.253-.66 2.227-.749 2.644-.75.025.003.05.007.076.009l.074-.006.073.006c.026-.002.051-.006.076-.01.418.002 1.39.09 2.644.751 1.687.89 2.867 1.1 4.756-.013 1.89-1.111 1.046-5.263-1.18-8.784-2.008-3.174-5.276-4.09-6.37-3.994zM17.45 16.233c1.33-.08 2.316-1.761 2.202-3.755-.115-1.994-1.287-3.546-2.618-3.467-1.331.08-2.317 1.762-2.203 3.756.115 1.994 1.287 3.546 2.618 3.466zM13.068 19.783c1.047-.363 1.473-1.928.951-3.497-.522-1.568-1.793-2.545-2.84-2.182s-1.473 1.928-.95 3.497c.52 1.568 1.792 2.545 2.84 2.182zM23.578 16.233c1.331.08 2.503-1.472 2.618-3.466.114-1.994-.872-3.676-2.203-3.756-1.33-.08-2.503 1.473-2.617 3.467-.115 1.994.87 3.675 2.202 3.755zM29.821 13.998c-1.046-.363-2.318.614-2.84 2.182-.521 1.569-.095 3.134.951 3.497 1.047.363 2.319-.614 2.84-2.183.522-1.568.096-3.134-.95-3.496z"/>
        </g>
    </g>
</svg>
