<?xml version="1.0" encoding="utf-8"?>
<!-- Generator: Adobe Illustrator 22.0.1, SVG Export Plug-In . SVG Version: 6.00 Build 0)  -->
<svg version="1.1" id="Layer_1" xmlns="http://www.w3.org/2000/svg" xmlns:xlink="http://www.w3.org/1999/xlink" x="0px" y="0px"
	 viewBox="0 0 12 12" style="enable-background:new 0 0 12 12;" xml:space="preserve">
<title>034_arrow_forward</title>
<desc>Created with Sketch.</desc>
<g id="Page-1">
	<g id="_x31_366-Company-3-2" transform="translate(-1202.000000, -610.000000)">
		<g id="Group-11-Copy-8" transform="translate(653.000000, 383.000000)">
			<g id="Group-13-Copy-8" transform="translate(480.000000, 175.000000)">
				<g id="_x30_34_x5F_arrow_x5F_forward" transform="translate(69.000000, 52.000000)">
					<path id="Shape" d="M11.7,5.3L7.3,0.9C7.3,0.8,7.1,0.8,7,0.8c-0.1,0-0.3,0.1-0.4,0.1L5.9,1.6C5.8,1.7,5.8,1.9,5.8,2
						c0,0.1,0.1,0.3,0.1,0.4L8.6,5H0.5C0.2,5,0,5.2,0,5.5v1C0,6.8,0.2,7,0.5,7h8.1L5.9,9.6C5.8,9.7,5.8,9.9,5.8,10s0.1,0.3,0.1,0.4
						l0.7,0.7c0.1,0.1,0.2,0.1,0.4,0.1c0.1,0,0.3-0.1,0.4-0.1l4.3-4.3C11.9,6.5,12,6.3,12,6S11.9,5.5,11.7,5.3z"/>
				</g>
			</g>
		</g>
	</g>
</g>
</svg>
