<?xml version="1.0" encoding="utf-8"?>
<!-- Generator: Adobe Illustrator 22.0.1, SVG Export Plug-In . SVG Version: 6.00 Build 0)  -->
<svg version="1.1" id="Layer_1" xmlns="http://www.w3.org/2000/svg" xmlns:xlink="http://www.w3.org/1999/xlink" x="0px" y="0px"
	 viewBox="0 0 25 24" style="enable-background:new 0 0 25 24;" xml:space="preserve">
<title>Fill 1 Copy 2</title>
<desc>Created with Sketch.</desc>
<path d="M23.166,0h-21c-0.826,0-1.5,0.67-1.5,1.5v21c0,0.828,0.674,1.5,1.5,1.5h21c0.83,0,1.5-0.672,1.5-1.5v-21
	C24.666,0.671,23.995,0,23.166,0z M18.442,3c1.048,0,2.098,0.299,2.7,0.9l0.3,0.148V6h-1.35V4.65c-0.45-0.3-0.9-0.45-1.65-0.45
	c-1.652,0-2.702,1.349-2.702,2.849c0,1.651,1.202,2.852,2.702,2.852c0.9,0,1.65-0.3,2.25-1.05l1.048,0.75
	c-0.75,1.05-1.95,1.65-3.298,1.65c-2.25,0-4.05-1.8-4.05-4.201C14.392,4.799,16.192,3,18.442,3z M12.142,15.15h-1.352v-1.2
	c-1.198,0-2.098,1.05-2.25,2.25v3.3h3.302v1.2h-6v-1.35h1.35V14.1h-1.35v-1.2h2.398l0.151,1.5c0.599-0.9,1.5-1.65,2.7-1.65h1.05
	V15.15z M10.192,11.1H8.991L6.592,4.5H5.241V3.15h2.55L9.741,9l2.102-5.85h2.25V4.5h-1.352L10.192,11.1z M22.192,20.7h-2.1
	l-0.15-1.2c-0.6,0.9-1.35,1.5-2.402,1.5c-1.8,0-2.848-1.35-2.848-3.15v-3.6h-1.202V12.9h2.702v4.648c0,1.351,0.598,2.101,1.65,2.101
	c1.05,0,2.1-0.9,2.1-2.25v-3.15h-1.35V12.9h2.698v4.5v1.95h0.902V20.7z"/>
</svg>
