<?xml version="1.0" encoding="utf-8"?>
<!-- Generator: Adobe Illustrator 22.0.1, SVG Export Plug-In . SVG Version: 6.00 Build 0)  -->
<svg version="1.1" id="Layer_1" xmlns="http://www.w3.org/2000/svg" xmlns:xlink="http://www.w3.org/1999/xlink" x="0px" y="0px"
	 viewBox="0 0 24 24" style="enable-background:new 0 0 24 24;" xml:space="preserve">
<title>Fill 1 Copy</title>
<desc>Created with Sketch.</desc>
<path d="M22.5,0h-21C0.7,0,0,0.7,0,1.5v21C0,23.3,0.7,24,1.5,24h21c0.8,0,1.5-0.7,1.5-1.5v-21C24,0.7,23.3,0,22.5,0z M16.3,13.2
	h-2.7V21H9.8v-7.8H7.4V9.6h2.5V6.7c0,0,0.1-3.7,3.3-3.7h3.5v3.5h-2.2c0,0-0.9,0-0.9,1v2.2h3.1L16.3,13.2z"/>
</svg>
