<?xml version="1.0" encoding="utf-8"?>
<!-- Generator: Adobe Illustrator 22.0.1, SVG Export Plug-In . SVG Version: 6.00 Build 0)  -->
<svg version="1.1" id="Layer_1" xmlns="http://www.w3.org/2000/svg" xmlns:xlink="http://www.w3.org/1999/xlink" x="0px" y="0px"
	 viewBox="0 0 25 24" style="enable-background:new 0 0 25 24;" xml:space="preserve">
<title>Group 14</title>
<desc>Created with Sketch.</desc>
<g>
	<path d="M19.7,6.7c-0.2-0.4-0.4-0.7-0.7-1c-0.3-0.3-0.6-0.5-1-0.7c-0.3-0.1-0.8-0.3-1.7-0.3c-0.9,0-1.2-0.1-3.6-0.1S10,4.6,9,4.7
		C8.2,4.7,7.7,4.9,7.4,5c-0.4,0.2-0.7,0.4-1,0.7s-0.5,0.6-0.7,1C5.5,7,5.4,7.5,5.3,8.4c0,0.9-0.1,1.2-0.1,3.6s0,2.7,0.1,3.6
		c0,0.9,0.2,1.4,0.3,1.7c0.2,0.4,0.4,0.7,0.7,1s0.6,0.5,1,0.7c0.3,0.1,0.8,0.3,1.7,0.3c0.9,0,1.2,0.1,3.6,0.1s2.7,0,3.6-0.1
		c0.9,0,1.4-0.2,1.7-0.3c0.4-0.2,0.7-0.4,1-0.7c0.3-0.3,0.5-0.6,0.7-1c0.1-0.3,0.3-0.8,0.3-1.7c0-0.9,0.1-1.2,0.1-3.6s0-2.7-0.1-3.6
		C20,7.5,19.8,7,19.7,6.7z M12.7,16.6C10.1,16.6,8,14.6,8,12s2.1-4.6,4.6-4.6c2.6,0,4.6,2.1,4.6,4.6S15.2,16.6,12.7,16.6z M17.5,8.3
		c-0.6,0-1.1-0.5-1.1-1.1c0-0.6,0.5-1.1,1.1-1.1s1.1,0.5,1.1,1.1C18.6,7.8,18.1,8.3,17.5,8.3z"/>
	<circle cx="12.7" cy="12" r="3"/>
	<path d="M23.2,0h-21C1.3,0,0.7,0.7,0.7,1.5v21c0,0.8,0.7,1.5,1.5,1.5h21c0.8,0,1.5-0.7,1.5-1.5v-21C24.7,0.7,24,0,23.2,0z
		 M21.6,15.7c0,1-0.2,1.6-0.4,2.2c-0.2,0.6-0.5,1.1-1,1.6c-0.5,0.5-1,0.8-1.6,1c-0.6,0.2-1.2,0.4-2.2,0.4c-1,0-1.3,0.1-3.7,0.1
		c-2.4,0-2.8,0-3.7-0.1c-1,0-1.6-0.2-2.2-0.4c-0.6-0.2-1.1-0.5-1.6-1c-0.5-0.5-0.8-1-1-1.6c-0.2-0.6-0.4-1.2-0.4-2.2
		c0-1-0.1-1.3-0.1-3.7c0-2.4,0-2.8,0.1-3.7c0-1,0.2-1.6,0.4-2.2c0.2-0.6,0.5-1.1,1-1.6c0.5-0.5,1-0.8,1.6-1C7.3,3.2,8,3.1,9,3.1
		c1,0,1.3-0.1,3.7-0.1c2.4,0,2.8,0,3.7,0.1c1,0,1.6,0.2,2.2,0.4c0.6,0.2,1.1,0.5,1.6,1c0.5,0.5,0.8,1,1,1.6c0.2,0.6,0.4,1.2,0.4,2.2
		c0,1,0.1,1.3,0.1,3.7C21.7,14.4,21.7,14.7,21.6,15.7z"/>
</g>
</svg>
