<?xml version="1.0" encoding="utf-8"?>
<!-- Generator: Adobe Illustrator 22.0.1, SVG Export Plug-In . SVG Version: 6.00 Build 0)  -->
<svg version="1.1" id="Layer_1" xmlns="http://www.w3.org/2000/svg" xmlns:xlink="http://www.w3.org/1999/xlink" x="0px" y="0px"
	 viewBox="0 0 147 30" style="enable-background:new 0 0 147 30;" xml:space="preserve">
<style type="text/css">
	.st0{fill:#90C53D;}
	.st1{fill:#262C37;}
</style>
<title>head</title>
<desc>Created with Sketch.</desc>
<g id="Page-1">
	<g id="_x39_92" transform="translate(-46.000000, -25.000000)">
		<g id="_x31_">
			<g id="Header" transform="translate(46.000000, 25.000000)">
				<g id="head">
					<g id="Group-2">
						<path id="Fill-6" class="st0" d="M8.7,7.1c0.1,1.9-1.3,3.5-3.2,3.6c-1.9,0.1-3.5-1.3-3.6-3.2S3.3,4,5.1,3.9
							C7,3.8,8.6,5.2,8.7,7.1"/>
						<path id="Fill-8" class="st0" d="M24.2,8c0.1,1.9-1.3,3.5-3.2,3.6c-1.9,0.1-3.5-1.3-3.6-3.2c-0.1-1.9,1.3-3.5,3.2-3.6
							C22.5,4.7,24.1,6.2,24.2,8"/>
						<path id="Fill-10" class="st0" d="M24.2,15.3c0.1,1.6-1.1,3-2.7,3.1c-1.6,0.1-3-1.1-3.1-2.7c-0.1-1.6,1.1-3,2.7-3.1
							C22.7,12.5,24.1,13.7,24.2,15.3"/>
						<path id="Fill-12" class="st0" d="M17.4,18.7c0.1,1.3-0.9,2.5-2.3,2.6c-1.3,0.1-2.5-0.9-2.6-2.3c-0.1-1.3,0.9-2.5,2.3-2.6
							C16.2,16.4,17.3,17.4,17.4,18.7"/>
						<path id="Fill-14" class="st0" d="M10.6,18.3c0.1,1.1-0.8,2-1.8,2c-1.1,0.1-2-0.7-2-1.8c-0.1-1.1,0.8-2,1.8-2
							C9.7,16.4,10.6,17.2,10.6,18.3"/>
						<path id="Fill-16" class="st0" d="M17.4,3.6c0.1,2.1-1.5,4-3.6,4.1c-2.1,0.1-4-1.5-4.1-3.6C9.6,2,11.2,0.1,13.3,0
							C15.5-0.1,17.3,1.5,17.4,3.6"/>
						<path id="Fill-18" class="st0" d="M11.6,26.5c0.1,1.3-0.9,2.5-2.3,2.6c-1.3,0.1-2.5-0.9-2.6-2.3c-0.1-1.3,0.9-2.5,2.3-2.6
							C10.4,24.1,11.5,25.1,11.6,26.5"/>
						<path id="Fill-20" class="st0" d="M16.4,28c0.1,1.1-0.8,2-1.8,2c-1.1,0.1-2-0.8-2-1.8c-0.1-1.1,0.8-2,1.8-2
							C15.5,26.1,16.4,26.9,16.4,28"/>
						<path id="Fill-22" class="st0" d="M21.2,27.1c-0.3,0.7-1.1,1.1-1.9,0.8c-0.7-0.3-1.1-1.1-0.8-1.9s1.1-1.1,1.9-0.8
							C21.1,25.6,21.5,26.4,21.2,27.1"/>
						<path id="Fill-24" class="st0" d="M23.2,24.5c-0.2,0.5-0.8,0.7-1.3,0.6c-0.5-0.2-0.7-0.8-0.6-1.3c0.2-0.5,0.8-0.7,1.3-0.5
							C23.1,23.5,23.4,24,23.2,24.5"/>
						<path id="Fill-1" class="st0" d="M7.7,22.1c0.1,1.6-1.1,3-2.7,3.1c-1.6,0.1-3-1.1-3.1-2.7s1.1-3,2.7-3.1
							C6.3,19.3,7.6,20.5,7.7,22.1"/>
						<path id="Fill-3" class="st0" d="M6.3,15.1c0.1,1.7-1.2,3.1-3,3.2c-1.7,0.1-3.2-1.2-3.3-2.8s1.2-3.1,3-3.2
							C4.7,12.2,6.2,13.5,6.3,15.1"/>
					</g>
					<g id="Group" transform="translate(33.870968, 3.870968)">
						<path id="Fill-26" class="st1" d="M68.7,12.5c0-4.3,3.5-7.7,7.8-7.7c4.2,0,7.6,3.5,7.7,7.7c0,4.3-3.5,7.8-7.9,7.8
							C72.1,20.3,68.7,16.8,68.7,12.5 M76.4,17c2.4,0,4.5-2,4.4-4.5c0-2.4-2-4.4-4.4-4.4c-2.4,0-4.4,2-4.4,4.4
							C72,15,73.9,17,76.4,17"/>
						<path id="Fill-28" class="st1" d="M52.3,8.1c-1.5,0-0.2,0-1,0c-1.6,0-2.3,0.7-2.3,2c0,2.9,0,6.4,0,9.2h-3.5c0-3.4,0-6.3,0-9.4
							c0-3.4,2.8-5.1,5.7-5.1c0.4,0,0.4,0,1.1,0L52.3,8.1L52.3,8.1z"/>
						<path id="Fill-30" class="st1" d="M98.3,4.9c-0.1,0-0.2,0-0.4,0v0c-0.2,0-0.4,0-0.6,0c-0.2,0-0.4,0-0.6,0v0
							c-0.2,0-0.3,0-0.4,0c-2.7,0-5.3,1.6-5.3,4.9c0,3,0,6.1,0,9.1c0,0.2,0,0.3,0.1,0.5h3.1v-1c0-2.8,0-5.6,0-8.4c0-1.3,0.7-2,2.1-2
							c0.6,0,0.4,0,1,0c0.6,0,0.4,0,1,0c1.5,0,2.1,0.7,2.1,2c0,2.8,0,5.6,0,8.4v1h3.1c0-0.2,0.1-0.3,0.1-0.5c0-3,0-6.1,0-9.1
							C103.5,6.5,101,4.8,98.3,4.9"/>
						<path id="Fill-32" class="st1" d="M60.1,4.8c-4.1,0-7.5,2.9-7.8,6.7h0v0.6c0,0,0,0,0,0c0,0,0,0,0,0v11.1h3.2v-5.1
							c1.3,0.9,2.8,1.4,4.5,1.4c4.4,0,7.9-3.3,7.9-7.4C67.7,8.2,64.3,4.9,60.1,4.8 M60,16.4c-2.5,0-4.4-1.9-4.4-4.3
							c0-2.3,2-4.2,4.4-4.2c2.4,0,4.4,1.9,4.4,4.2C64.4,14.5,62.4,16.4,60,16.4"/>
						<path id="Fill-34" class="st1" d="M110.7,16.1c-1.4,0-2.1-0.7-2.1-2c0-1.2,0-3.4,0-5.8h2.6V5h-2.6V0h-3.1c0,3.4,0,11.2,0,14.3
							c0,3.4,2.5,5,5.1,5c0.4,0,1,0,1.6,0v-3.3C111,16.1,111.4,16.1,110.7,16.1"/>
						<path id="Fill-36" class="st1" d="M13.6,13.7h1.8c0.1-0.4,0.1-0.8,0.1-1.1c0-4.2-3.5-7.7-7.7-7.7C3.5,4.8,0,8.2,0,12.5
							c0,4.3,3.4,7.8,7.6,7.8c3.3,0,6.2-2,7.3-4.9h-3.8c-0.8,1-2,1.6-3.4,1.6c-2.1,0-3.8-1.4-4.3-3.3L13.6,13.7z M7.7,8.1
							c1.8,0,3.5,1.2,4.1,2.8H3.6C4.3,9.3,5.8,8.1,7.7,8.1z"/>
						<path id="Fill-38" class="st1" d="M42.7,13.7h1.8c0.1-0.4,0.1-0.8,0.1-1.1c0-4.2-3.5-7.7-7.7-7.7c-4.4,0-7.8,3.4-7.8,7.7
							c0,4.3,3.4,7.8,7.6,7.8c3.3,0,6.1-2,7.3-4.9h-3.8c-0.8,1-2,1.6-3.4,1.6c-2.1,0-3.8-1.4-4.3-3.3L42.7,13.7z M36.8,8.1
							c1.8,0,3.5,1.2,4.1,2.8h-8.2C33.3,9.3,34.9,8.1,36.8,8.1z"/>
						<path id="Fill-40" class="st1" d="M24.1,8.2c-0.7,1.7-1.5,3.4-2.3,5.2c-0.2-0.5-0.4-0.9-0.6-1.2c-0.8-1.7-2.3-5.1-3.3-7.4
							h-3.3c0,0,0,0,0,0c0.1,0.3,0.2,0.5,0.3,0.8c1.8,4.2,3.7,8.4,5.5,12.6c0.3,0.7,0.7,1.1,1.4,1.1c0.7,0,1.1-0.4,1.4-1.1
							C25,14,26.9,9.7,28.8,5.5c0.1-0.2,0.2-0.3,0.2-0.6h-3.4C25,6.2,24.3,7.7,24.1,8.2"/>
						<path id="Fill-42" class="st1" d="M89,1.9c0,1.1-0.9,1.9-1.9,1.9c-1.1,0-1.9-0.9-1.9-1.9C85.2,0.9,86,0,87.1,0
							C88.2,0,89,0.9,89,1.9"/>
						<polygon id="Fill-44" class="st1" points="85.2,19.4 88.1,19.4 88.1,4.8 85.2,4.8 						"/>
					</g>
				</g>
			</g>
		</g>
	</g>
</g>
</svg>
