<?xml version="1.0" encoding="utf-8"?>
<!-- Generator: Adobe Illustrator 22.0.1, SVG Export Plug-In . SVG Version: 6.00 Build 0)  -->
<svg version="1.1" id="Layer_1" xmlns="http://www.w3.org/2000/svg" xmlns:xlink="http://www.w3.org/1999/xlink" x="0px" y="0px"
	 viewBox="0 0 21 18" style="enable-background:new 0 0 21 18;" xml:space="preserve">
<style type="text/css">
	.st0{filter:url(#Adobe_OpacityMaskFilter);}
	.st1{fill:#FFFFFF;}
	.st2{mask:url(#mask-2_1_);}
</style>
<title>Group 3</title>
<desc>Created with Sketch.</desc>
<g id="Page-1">
	<g id="_x31_366-Company-3-2" transform="translate(-878.000000, -454.000000)">
		<g id="Group-11-Copy-8" transform="translate(653.000000, 383.000000)">
			<g id="Group-13-Copy" transform="translate(160.000000, 22.000000)">
				<g id="Group-3" transform="translate(65.000000, 49.000000)">
					<g id="Clip-2">
					</g>
					<defs>
						<filter id="Adobe_OpacityMaskFilter" filterUnits="userSpaceOnUse" x="0" y="0" width="21" height="18">
							<feColorMatrix  type="matrix" values="1 0 0 0 0  0 1 0 0 0  0 0 1 0 0  0 0 0 1 0"/>
						</filter>
					</defs>
					<mask maskUnits="userSpaceOnUse" x="0" y="0" width="21" height="18" id="mask-2_1_">
						<g class="st0">
							<polygon id="path-1_1_" class="st1" points="0,0 21,0 21,18 0,18 							"/>
						</g>
					</mask>
					<path id="Fill-1" class="st2" d="M17.2,16h-7L6,14.3V9h1c0.4,0,0.8-0.2,0.9-0.6L10.7,2H12v4c0,0.6,0.4,1,1,1h5.8L17.2,16z
						 M2,16h2V8H2V16z M20.8,5.4C20.6,5.1,20.3,5,20,5h-6V1c0-0.6-0.4-1-1-1h-3C9.6,0,9.2,0.2,9.1,0.6L6.3,7H6c0-0.6-0.4-1-1-1H1
						C0.4,6,0,6.4,0,7v10c0,0.6,0.4,1,1,1h4c0.6,0,1-0.4,1-1v-0.5l3.6,1.5C9.7,18,9.9,18,10,18h8c0.5,0,0.9-0.3,1-0.8l2-11
						C21,5.9,21,5.6,20.8,5.4z"/>
				</g>
			</g>
		</g>
	</g>
</g>
</svg>
