<?xml version="1.0" encoding="utf-8"?>
<!-- Generator: Adobe Illustrator 22.0.1, SVG Export Plug-In . SVG Version: 6.00 Build 0)  -->
<svg version="1.1" id="Layer_1" xmlns="http://www.w3.org/2000/svg" xmlns:xlink="http://www.w3.org/1999/xlink" x="0px" y="0px"
	 viewBox="0 0 21 20" style="enable-background:new 0 0 21 20;" xml:space="preserve">
<title>Group 8</title>
<desc>Created with Sketch.</desc>
<g id="Page-1">
	<g id="_x31_366-Company-3-2" transform="translate(-1038.000000, -453.000000)">
		<g id="Group-11-Copy-8" transform="translate(653.000000, 383.000000)">
			<g id="Group-13-Copy-2" transform="translate(320.000000, 22.000000)">
				<g id="Group-8" transform="translate(65.000000, 48.000000)">
					<path id="Fill-1" d="M5,3.8V6H3.1C3.6,5.1,4.2,4.4,5,3.8z M5,12H2.3C2.1,11.4,2,10.7,2,10s0.1-1.4,0.3-2H5V12z M5,16.2
						c-0.8-0.6-1.4-1.4-1.9-2.2H5V16.2z M0,10c0,5.5,4.5,10,10,10v-2c-1.1,0-2.1-0.2-3-0.6V14h3v-2H7V8h3V6H7V2.6
						C7.9,2.2,8.9,2,10,2V0C4.5,0,0,4.5,0,10z"/>
					<path id="Fill-4" d="M16,4c-0.6,0-1-0.4-1-1s0.4-1,1-1c0.6,0,1,0.4,1,1S16.6,4,16,4 M19,3c0-1.7-1.3-3-3-3s-3,1.3-3,3
						s1.3,3,3,3S19,4.7,19,3"/>
					<path id="Fill-6" d="M19,13h-1c-0.6,0-1,0.4-1,1v4h-2v-4c0-0.6-0.4-1-1-1h-1v-2c0-1.7,1.3-3,3-3s3,1.3,3,3V13z M16,6
						c-2.8,0-5,2.2-5,5v3c0,0.6,0.4,1,1,1h1v4c0,0.6,0.4,1,1,1h4c0.6,0,1-0.4,1-1v-4h1c0.6,0,1-0.4,1-1v-3C21,8.2,18.8,6,16,6z"/>
				</g>
			</g>
		</g>
	</g>
</g>
</svg>
