<?xml version="1.0" encoding="utf-8"?>
<!-- Generator: Adobe Illustrator 22.0.1, SVG Export Plug-In . SVG Version: 6.00 Build 0)  -->
<svg version="1.1" id="Layer_1" xmlns="http://www.w3.org/2000/svg" xmlns:xlink="http://www.w3.org/1999/xlink" x="0px" y="0px"
	 viewBox="0 0 16 20" style="enable-background:new 0 0 16 20;" xml:space="preserve">
<title>Fill 1</title>
<desc>Created with Sketch.</desc>
<g id="Page-1">
	<g id="_x31_366-Company-3-2" transform="translate(-720.000000, -606.000000)">
		<g id="Group-11-Copy-8" transform="translate(653.000000, 383.000000)">
			<g id="Group-13-Copy-4" transform="translate(0.000000, 175.000000)">
				<path id="Fill-1" d="M70.1,58H74c0.6,0,1,0.4,1,1v5.2l4.9-6.2H76c-0.6,0-1-0.4-1-1v-5.1L70.1,58z M74,68c-0.1,0-0.2,0-0.3-0.1
					C73.3,67.8,73,67.4,73,67v-7h-5c-0.4,0-0.7-0.2-0.9-0.6c-0.2-0.3-0.1-0.8,0.1-1.1l8-10c0.3-0.3,0.7-0.5,1.1-0.3
					c0.4,0.1,0.7,0.5,0.7,0.9v7h5c0.4,0,0.7,0.2,0.9,0.6c0.2,0.3,0.1,0.8-0.1,1.1l-8,10C74.6,67.9,74.3,68,74,68z"/>
			</g>
		</g>
	</g>
</g>
</svg>
