<?xml version="1.0" encoding="utf-8"?>
<!-- Generator: Adobe Illustrator 22.0.1, SVG Export Plug-In . SVG Version: 6.00 Build 0)  -->
<svg version="1.1" id="Layer_1" xmlns="http://www.w3.org/2000/svg" xmlns:xlink="http://www.w3.org/1999/xlink" x="0px" y="0px"
	 viewBox="0 0 20 20" style="enable-background:new 0 0 20 20;" xml:space="preserve">
<title>Group 6</title>
<desc>Created with Sketch.</desc>
<g id="Page-1">
	<g id="_x31_366-Company-3-2" transform="translate(-1198.000000, -454.000000)">
		<g id="Group-11-Copy-8" transform="translate(653.000000, 383.000000)">
			<g id="Group-13-Copy-3" transform="translate(480.000000, 22.000000)">
				<g id="Group-6" transform="translate(65.000000, 49.000000)">
					<path id="Fill-1" d="M10,2c-4.4,0-8,3.6-8,8c0,4.4,3.6,8,8,8s8-3.6,8-8C18,5.6,14.4,2,10,2 M10,20C4.5,20,0,15.5,0,10
						C0,4.5,4.5,0,10,0s10,4.5,10,10C20,15.5,15.5,20,10,20"/>
					<path id="Fill-4" d="M8,7C6.2,7,6,8.4,6,9c0,1.7,2.6,3.8,4,4.8c1.4-1,4-3.1,4-4.8c0-0.6-0.2-2-2-2c-0.4,0-1,0.6-1,1
						c0,0.6-0.4,1-1,1S9,8.6,9,8C9,7.6,8.4,7,8,7 M10,16c-0.2,0-0.4,0-0.5-0.1C8.9,15.5,4,12.5,4,9c0-2.4,1.6-4,4-4
						c0.7,0,1.5,0.3,2,0.8C10.5,5.3,11.3,5,12,5c2.4,0,4,1.6,4,4c0,3.5-4.9,6.5-5.5,6.9C10.4,16,10.2,16,10,16"/>
				</g>
			</g>
		</g>
	</g>
</g>
</svg>
