<?xml version="1.0" encoding="utf-8"?>
<!-- Generator: Adobe Illustrator 22.0.1, SVG Export Plug-In . SVG Version: 6.00 Build 0)  -->
<svg version="1.1" id="Layer_1" xmlns="http://www.w3.org/2000/svg" xmlns:xlink="http://www.w3.org/1999/xlink" x="0px" y="0px"
	 viewBox="0 0 24 22" style="enable-background:new 0 0 24 22;" xml:space="preserve">
<style type="text/css">
	.st0{filter:url(#Adobe_OpacityMaskFilter);}
	.st1{fill:#FFFFFF;}
	.st2{mask:url(#mask-2_1_);}
</style>
<title>telegram</title>
<desc>Created with Sketch.</desc>
<g id="Page-1">
	<g id="_x31_366-Contacts-1" transform="translate(-1283.000000, -802.000000)">
		<g id="Group-10-Copy" transform="translate(120.000000, 373.000000)">
			<g id="Group-11" transform="translate(1152.000000, 415.000000)">
				<g id="telegram" transform="translate(11.000000, 14.000000)">
					<g id="Clip-2">
					</g>
					<defs>
						<filter id="Adobe_OpacityMaskFilter" filterUnits="userSpaceOnUse" x="0" y="0" width="23.8" height="21.4">
							<feColorMatrix  type="matrix" values="1 0 0 0 0  0 1 0 0 0  0 0 1 0 0  0 0 0 1 0"/>
						</filter>
					</defs>
					<mask maskUnits="userSpaceOnUse" x="0" y="0" width="23.8" height="21.4" id="mask-2_1_">
						<g class="st0">
							<polygon id="path-1_1_" class="st1" points="0,0 23.8,0 23.8,21.4 0,21.4 							"/>
						</g>
					</mask>
					<path fill="#fff" id="Fill-1" class="st2" d="M21.9,1.9c0,0.1,0,0,0,0.2v0l-3.4,17.3c0,0,0,0.1-0.1,0.1c-0.1,0.1-0.1,0.1-0.4,0l-5.4-4.1
						l-3.3,3l0.7-4.4c0,0,8.5-7.9,8.8-8.2c0.4-0.3,0.2-0.4,0.2-0.4c0-0.4-0.6-0.1-0.6-0.1L7.4,12.1l0,0l-5.3-1.8v0c0,0,0,0,0,0
						c0,0,0,0,0,0l0,0l0,0c0,0,4.8-2,9.6-4c2.4-1,4.9-2.1,6.7-2.8C20.4,2.5,21.8,1.9,21.9,1.9C21.9,1.9,21.9,1.9,21.9,1.9 M22,0
						c-0.3,0-0.6,0.1-0.9,0.2h0c-0.3,0.1-1.5,0.6-3.4,1.4c-1.9,0.8-4.3,1.8-6.8,2.8c-4.8,2-9.6,4-9.6,4l0.1,0c0,0-0.3,0.1-0.7,0.3
						C0.6,8.9,0.4,9.1,0.3,9.4C0.1,9.6,0,10,0,10.4c0.1,0.7,0.5,1.1,0.8,1.3C1.1,11.9,1.4,12,1.4,12h0l4.5,1.5
						c0.2,0.6,1.4,4.5,1.6,5.3c0.2,0.5,0.3,0.9,0.5,1.1c0.1,0.1,0.2,0.2,0.3,0.3c0.1,0,0.1,0.1,0.2,0.1c0,0,0,0,0.1,0l0,0
						c0,0,0,0,0,0c0,0,0.1,0,0.1,0c0.7,0.2,1.3-0.2,1.3-0.2l0,0l2.6-2.4l4.4,3.4l0.1,0c0.9,0.4,1.9,0.2,2.3-0.2
						c0.5-0.4,0.7-0.9,0.7-0.9l0-0.1l3.4-17.5c0.1-0.4,0.1-0.8,0-1.2c-0.1-0.4-0.4-0.8-0.7-1C22.7,0,22.3,0,22,0"/>
				</g>
			</g>
		</g>
	</g>
</g>
</svg>
