<?xml version="1.0" encoding="utf-8"?>
<!-- Generator: Adobe Illustrator 22.0.1, SVG Export Plug-In . SVG Version: 6.00 Build 0)  -->
<svg version="1.1" id="Layer_1" xmlns="http://www.w3.org/2000/svg" xmlns:xlink="http://www.w3.org/1999/xlink" x="0px" y="0px"
	 viewBox="0 0 96 96" style="enable-background:new 0 0 96 96;" xml:space="preserve">
<style type="text/css">
	.st0{fill:url(#Mask_1_);}
	.st1{fill:#FFFFFF;}
</style>
<title>Bitmap</title>
<desc>Created with Sketch.</desc>
<g id="Page-1">
	<g id="_x31_366-Company-5" transform="translate(-755.000000, -665.000000)">
		<g id="Group-4-Copy" transform="translate(653.000000, 276.000000)">
			<g id="Group-3-Copy-6" transform="translate(0.000000, 328.000000)">
				<g id="Group-9" transform="translate(27.000000, 61.000000)">
					<g id="Bitmap" transform="translate(75.000000, 0.000000)">
						
							<linearGradient id="Mask_1_" gradientUnits="userSpaceOnUse" x1="40.0833" y1="56.4167" x2="40.0833" y2="55.4167" gradientTransform="matrix(96 0 0 -96 -3800 5416)">
							<stop  offset="0" style="stop-color:#E1D020"/>
							<stop  offset="1" style="stop-color:#FFFFFF"/>
						</linearGradient>
						<circle id="Mask" class="st0" cx="48" cy="48" r="48"/>
						<g id="Group-3" transform="translate(15.000000, 20.000000)">
							<path id="Fill-1" class="st1" d="M47.4,57.4c-2.3-8-5.3-5.6-4.5-6.7c0.9-1.1,4-10.2,4-10.2l1.3,0.6
								c2.3-2.6,3.2-11.8,3.2-11.8l-1.7-0.7c0,0,2.9-6.3,1-16.4C48.8,2.2,38.5,0,33,0c-5.5,0-15.8,2.2-17.7,12.3
								c-2,10.1,1,16.4,1,16.4l-1.7,0.7c0,0,0.9,9.1,3.2,11.8l1.3-0.6c0,0,3.2,9.1,4,10.2c0.9,1.1-2.2-1.3-4.5,6.7
								c-3.5-0.3-11.9,2-18.6,4.9C8.6,70.8,20.2,76,33,76c12.8,0,24.4-5.2,33-13.7C59.2,59.3,50.9,57.1,47.4,57.4"/>
						</g>
					</g>
				</g>
			</g>
		</g>
	</g>
</g>
</svg>
