<svg xmlns="http://www.w3.org/2000/svg" width="32" height="40" viewBox="0 0 32 40">
    <g fill="#009AEB" fill-rule="evenodd">
        <path d="M16.103 10.452h-1.98v5.363h1.98c2.632 0 3.533-1.23 3.533-2.732 0-1.554-.901-2.631-3.533-2.631"/>
        <path d="M8.81 19.774h2.105V17.97H8.81v-2.154h2.105V7.718h5.939c3.384 0 5.915 1.555 5.915 5.065 0 4.135-3.508 5.186-5.814 5.186h-2.833v1.805h5.314v2.157h-5.314v3.331h-3.207v-3.331H8.81v-2.157zm-3.546 8.462v-1.22H12.282v3.509H19.299V23.508h7.018v4.728c3.222-2.89 5.263-7.074 5.263-11.746C31.58 7.77 24.51.7 15.79.7 7.07.7 0 7.77 0 16.49c0 4.672 2.04 8.856 5.264 11.746zM14.035 39.298h3.509v-7.017h-3.509z"/>
        <path d="M7.018 39.298h3.508V28.772H7.018zM21.053 39.298h3.508V25.263h-3.508zM0 39.298h3.509v-5.263H0zM28.07 39.298h3.509v-8.772H28.07z"/>
    </g>
</svg>
