<svg xmlns="http://www.w3.org/2000/svg" width="32" height="40" viewBox="0 0 32 40">
    <g fill="#009AEB" fill-rule="evenodd">
        <path d="M17.236 36H28v-8.438l-6.486-1.62A2.002 2.002 0 0 1 20 24v-8.558l-2-.666V26a2 2 0 0 1-2 2h-2.764l4 8zM30 40H16c-.758 0-1.45-.428-1.79-1.106l-6-12A2.002 2.002 0 0 1 10 24h4V12c0-.642.308-1.246.83-1.624a2.004 2.004 0 0 1 1.802-.274l6 2A2 2 0 0 1 24 14v8.438l6.486 1.622A2 2 0 0 1 32 26v12a2 2 0 0 1-2 2z"/>
        <path d="M28 0H4C1.794 0 0 1.796 0 4v14c0 2.206 1.794 4 4 4h6v-4H4V4h24v14h4V4c0-2.204-1.794-4-4-4"/>
    </g>
</svg>
