<svg xmlns="http://www.w3.org/2000/svg" width="40" height="40" viewBox="0 0 40 40">
    <g fill="none" fill-rule="evenodd">
        <circle cx="20" cy="20" r="20" fill="#262C37" opacity=".05"/>
        <g fill="#FFF" fill-rule="nonzero">
            <path d="M25.929 15.539c-.706 0-1.362.23-1.914.625-.658-1.734-2.208-2.952-4.015-2.952-1.807 0-3.357 1.218-4.016 2.952a3.269 3.269 0 0 0-1.913-.625c-1.42 0-2.643.93-3.202 2.267H29.13c-.558-1.338-1.78-2.267-3.201-2.267zM31.672 20.005a.76.76 0 0 0-.68-.418H9.008a.76.76 0 0 0-.68.418c-.348.69-.263 2.695.482 4.733.762 2.083 2.45 4.898 6.166 6.476.094.04.195.06.298.06h9.452a.76.76 0 0 0 .298-.06c3.715-1.578 5.403-4.392 6.165-6.475.746-2.038.831-4.044.483-4.734zM16.557 11.518a.761.761 0 0 0 1.433-.512l-.634-1.775a.761.761 0 0 0-1.433.512l.634 1.775zM19.6 11.518a.761.761 0 1 0 1.434-.512l-.635-1.775a.76.76 0 1 0-1.433.512l.634 1.775zM22.644 11.518a.761.761 0 0 0 1.433-.512l-.634-1.775a.76.76 0 1 0-1.433.512l.634 1.775z"/>
        </g>
    </g>
</svg>
