<svg xmlns="http://www.w3.org/2000/svg" width="40" height="40" viewBox="0 0 40 40">
    <g fill="none" fill-rule="evenodd">
        <circle cx="20" cy="20" r="20" fill="#262C37" opacity=".05"/>
        <g fill="#FFF" fill-rule="nonzero">
            <path d="M19.42 13.361c0-2.339-1.435-4.354-3.207-4.354-1.77 0-3.207 2.015-3.207 4.354 0 1.818.868 3.368 2.085 3.968.213.408.197 1.025.197 1.025l.013.093-.164 11.874c0 .373.328.676.732.676h.688c.405 0 .733-.303.733-.676l-.165-11.874.014-.093s-.017-.617.196-1.025c1.218-.6 2.085-2.15 2.085-3.968zM27.366 9.027c-.375-.001-.653.26-.654.606V13.836a.402.402 0 0 1-.397.407.402.402 0 0 1-.397-.407V9.633c.001-.347-.246-.605-.62-.606-.376-.001-.641.26-.642.606v4.193c0 .23-.183.417-.407.417a.412.412 0 0 1-.408-.417v-.007h-.005V9.642c.001-.346-.27-.615-.645-.616a.599.599 0 0 0-.625.616l.008 5.746s.043.835.58 1.253c.235.182.523.25.773.382.045.05.09.099.132.148.323.377.301 1.182.301 1.182l.014.093-.165 11.874c0 .373.328.676.732.676h.689c.404 0 .732-.303.732-.676l-.165-11.874.014-.093s-.022-.805.301-1.182c.042-.05.087-.099.132-.148.25-.132.538-.2.772-.382.538-.418.574-1.253.574-1.253V13.6l.007-3.963c.001-.347-.256-.608-.63-.61z"/>
        </g>
    </g>
</svg>
