<svg xmlns="http://www.w3.org/2000/svg" viewBox="0 0 40 40">
    <g fill="none" fill-rule="evenodd">
        <circle cx="20" cy="20" r="20" fill="#262C37" opacity=".05"/>
        <g fill="#FFF" fill-rule="nonzero">
            <path d="M15.2 13.314c-5.404 1.212-7.968 6.574-4.842 11.816 3.126 5.241 10.66 7.225 13.002 4.914 2.342-2.312-1.266-5.517-1.626-6.763-.35-1.21 1.255-1.855 2.223-2.178-.126-3.77.22-5.646.345-6.106-2.07-1.572-5.428-2.507-9.103-1.683zm-.934 1.898c.908-.291 1.876.227 2.16 1.157.284.931-.222 1.922-1.13 2.213-.91.291-1.876-.227-2.16-1.158-.285-.93.22-1.92 1.13-2.212zm-1.22 8.308c-.91.291-1.877-.227-2.161-1.158-.285-.93.222-1.921 1.13-2.212.909-.292 1.876.227 2.16 1.157.285.931-.221 1.922-1.13 2.213zm3.587 3.957c-.91.291-1.876-.227-2.16-1.158-.285-.93.22-1.921 1.13-2.212.908-.292 1.876.227 2.16 1.157.284.93-.222 1.921-1.13 2.213zm5.695-.05c.285.93-.222 1.922-1.13 2.213-.91.291-1.876-.227-2.16-1.158-.285-.93.22-1.921 1.13-2.212.908-.292 1.876.227 2.16 1.157zm-1.58-9.335c-.908.291-1.876-.227-2.16-1.158-.285-.93.222-1.92 1.13-2.212.909-.291 1.876.227 2.16 1.158.285.93-.221 1.92-1.13 2.212zM26.3 13.632h2.039c1.52-2.534-1.49-4.627-1.49-4.627s.04.263-.119.728c-.268.789-.327.608-.811 1.818-.484 1.21.38 2.08.38 2.08zM28.687 15.172h-2.635c-.198.96-.458 2.973-.202 6.327.38 4.99.553 7.958 1.106 8.138l.275.09h.277l.275-.09c.553-.18.726-3.147 1.106-8.138.255-3.354-.004-5.368-.202-6.327z"/>
        </g>
    </g>
</svg>
