<svg xmlns="http://www.w3.org/2000/svg" width="40" height="40" viewBox="0 0 40 40">
    <g fill="none" fill-rule="evenodd">
        <circle cx="20" cy="20" r="20" fill="#262C37" opacity=".05"/>
        <g fill="#FFF" fill-rule="nonzero">
            <path d="M17.505 13.952h5.14l1.58-3.474s.4-.992-.436-.725c-.835.267-1.326 1.203-1.907.764-.581-.44-.98-1.546-1.834-1.508-.854.038-1.09 1.279-1.744 1.317-.654.038-1.944-.61-2.343-.401-.4.21-.327.477-.11.954.219.477 1.654 3.073 1.654 3.073zM26.73 24.092c-.97-3.454-4.363-5.745-4.363-5.745H17.629s-3.395 2.29-4.364 5.745c-.97 3.454.764 6.489 4.867 6.832.732.062 1.347.08 1.866.064a16.47 16.47 0 0 0 1.865-.064c4.103-.343 5.837-3.378 4.867-6.832zm-3.946.096c-.077.274-.155.519-.33.742-.17.217-.394.394-.664.524s-.594.196-.966.196H19.11v.892h2.623v1.223H19.11v.902H17.94v-.902h-.642v-1.223h.642v-.915h-.673v-1.22h.673v-3.376h2.847c.66 0 1.147.185 1.535.581.378.385.56.954.56 1.739 0 .33-.03.596-.097.837z"/>
            <path d="M20.767 22.284H19.11v2.108h1.667a.96.96 0 0 0 .438-.11.72.72 0 0 0 .398-.521c.03-.135.045-.276.045-.42 0-.333-.07-.594-.21-.776-.139-.184-.375-.281-.68-.281zM17.736 15.382c-.391 0-.708.334-.708.745 0 .41.317.744.708.744h4.523c.391 0 .708-.333.708-.744s-.317-.745-.708-.745h-4.523z"/>
        </g>
    </g>
</svg>
