<?xml version="1.0" encoding="utf-8"?>
<!-- Generator: Adobe Illustrator 22.0.1, SVG Export Plug-In . SVG Version: 6.00 Build 0)  -->
<svg version="1.1" id="Layer_1" xmlns="http://www.w3.org/2000/svg" xmlns:xlink="http://www.w3.org/1999/xlink" x="0px" y="0px"
	 viewBox="0 0 96 96" style="enable-background:new 0 0 96 96;" xml:space="preserve">
<style type="text/css">
	.st0{fill:#EEF0F5;}
	.st1{filter:url(#filter-2);}
	.st2{fill:#FFFFFF;}
	.st3{filter:url(#filter-4);}
</style>
<filter  filterUnits="objectBoundingBox" height="113.1%" id="filter-4" width="116.6%" x="-8.3%" y="-4.7%">
	<feOffset  dx="0" dy="1" in="SourceAlpha" result="shadowOffsetOuter1"></feOffset>
	<feGaussianBlur  in="shadowOffsetOuter1" result="shadowBlurOuter1" stdDeviation="1"></feGaussianBlur>
	<feColorMatrix  in="shadowBlurOuter1" type="matrix" values="0 0 0 0 0   0 0 0 0 0   0 0 0 0 0  0 0 0 0.15 0"></feColorMatrix>
</filter>
<filter  filterUnits="objectBoundingBox" height="130.7%" id="filter-2" width="110.8%" x="-5.4%" y="-11.0%">
	<feOffset  dx="0" dy="1" in="SourceAlpha" result="shadowOffsetOuter1"></feOffset>
	<feGaussianBlur  in="shadowOffsetOuter1" result="shadowBlurOuter1" stdDeviation="1"></feGaussianBlur>
	<feColorMatrix  in="shadowBlurOuter1" type="matrix" values="0 0 0 0 0   0 0 0 0 0   0 0 0 0 0  0 0 0 0.15 0"></feColorMatrix>
</filter>
<title>Pr_2</title>
<desc>Created with Sketch.</desc>
<g id="Page-1">
	<g id="_x31_366-Company-7" transform="translate(-920.000000, -353.000000)">
		<g id="Group-3-Copy-4" transform="translate(818.000000, 293.000000)">
			<g id="Group-9" transform="translate(54.000000, 60.000000)">
				<g id="Pr_2" transform="translate(48.000000, 0.000000)">
					<circle id="Oval" class="st0" cx="48" cy="48" r="48"/>
					<g id="Path">
						<g class="st1">
							<path id="path-1_2_" d="M14.9,78.5c8.3,9,20,14.3,32.3,14.5c12.3,0.2,24.1-4.6,32.8-13.4c-6.1-5.6-18.7-9.4-33.2-9.4
								C33.3,70.2,21.4,73.5,14.9,78.5z"/>
						</g>
						<g>
							<path id="path-1_1_" class="st2" d="M14.9,78.5c8.3,9,20,14.3,32.3,14.5c12.3,0.2,24.1-4.6,32.8-13.4
								c-6.1-5.6-18.7-9.4-33.2-9.4C33.3,70.2,21.4,73.5,14.9,78.5z"/>
						</g>
					</g>
					<g id="Path_1_">
						<g class="st3">
							<path id="path-3_2_" d="M26.2,42.4c0,0,1.4,0.4,3.5,0.9c1.9,12.3,8.1,22.1,17.1,22.1S62,55.6,63.9,43.3
								c2.1-0.6,3.5-0.9,3.5-0.9c0-0.4,0.1-0.7,0.1-1.1c0.7-6.8,0.3-13.7-1.3-17.8C62.7,14.3,54.7,12,46.8,12s-15.9,2.3-19.4,11.5
								c-1.6,4.1-2,11-1.3,17.8C26.1,41.6,26.2,42,26.2,42.4z"/>
						</g>
						<g>
							<path id="path-3_1_" class="st2" d="M26.2,42.4c0,0,1.4,0.4,3.5,0.9c1.9,12.3,8.1,22.1,17.1,22.1S62,55.6,63.9,43.3
								c2.1-0.6,3.5-0.9,3.5-0.9c0-0.4,0.1-0.7,0.1-1.1c0.7-6.8,0.3-13.7-1.3-17.8C62.7,14.3,54.7,12,46.8,12s-15.9,2.3-19.4,11.5
								c-1.6,4.1-2,11-1.3,17.8C26.1,41.6,26.2,42,26.2,42.4z"/>
						</g>
					</g>
				</g>
			</g>
		</g>
	</g>
</g>
</svg>
