<?xml version="1.0" encoding="utf-8"?>
<!-- Generator: Adobe Illustrator 22.0.1, SVG Export Plug-In . SVG Version: 6.00 Build 0)  -->
<svg fill="#90c53d" version="1.1" id="Layer_1" xmlns="http://www.w3.org/2000/svg" xmlns:xlink="http://www.w3.org/1999/xlink" x="0px" y="0px"
	 viewBox="0 0 24 24" style="enable-background:new 0 0 24 24;" xml:space="preserve">
<g id="Page-1">
	<g id="_x31_366-Company-3-2" transform="translate(-1198.000000, -630.000000)">
		<g id="Group-11-Copy-8" transform="translate(653.000000, 407.000000)">
			<g id="Group-13-Copy-7" transform="translate(480.000000, 175.000000)">
				<g id="Group-8" transform="translate(65.000000, 48.000000)">
					<path id="Fill-1" d="M6,5.765V8H4.083C4.581,7.141,5.23,6.383,6,5.765z M6,14H3.263C3.098,13.359,3,12.691,3,12
						s0.098-1.359,0.263-2H6V14z M6,18.235C5.23,17.617,4.581,16.858,4.083,16H6V18.235z M1,12c0,5.515,4.486,10,10,10v-2
						c-1.061,0-2.073-0.212-3-0.589V16h3v-2H8v-4h3V8H8V4.589C8.927,4.212,9.939,4,11,4V2C5.486,2,1,6.486,1,12z"/>
					<path id="Fill-4" d="M17,6c-0.551,0-1-0.449-1-1s0.449-1,1-1c0.551,0,1,0.449,1,1S17.551,6,17,6 M20,5c0-1.654-1.346-3-3-3
						s-3,1.346-3,3s1.346,3,3,3S20,6.654,20,5"/>
					<path id="Fill-6" d="M20,15h-1c-0.552,0-1,0.448-1,1v4h-2v-4c0-0.552-0.448-1-1-1h-1v-2c0-1.654,1.346-3,3-3s3,1.346,3,3V15z
						 M17,8c-2.757,0-5,2.243-5,5v3c0,0.552,0.448,1,1,1h1v4c0,0.552,0.448,1,1,1h4c0.552,0,1-0.448,1-1v-4h1c0.552,0,1-0.448,1-1
						v-3C22,10.243,19.757,8,17,8z"/>
				</g>
			</g>
		</g>
	</g>
</g>
</svg>
