<?xml version="1.0" encoding="utf-8"?>
<!-- Generator: Adobe Illustrator 22.0.1, SVG Export Plug-In . SVG Version: 6.00 Build 0)  -->
<svg fill="#90c53d" version="1.1" id="Layer_1" xmlns="http://www.w3.org/2000/svg" xmlns:xlink="http://www.w3.org/1999/xlink" x="0px" y="0px"
	 viewBox="0 0 24 24" style="enable-background:new 0 0 24 24;" xml:space="preserve">
<g id="Page-1">
	<g id="_x31_366-Company-3-2" transform="translate(-1038.000000, -479.000000)">
		<g id="Group-11-Copy-8" transform="translate(653.000000, 407.000000)">
			<g id="Group-13-Copy-2" transform="translate(320.000000, 22.000000)">
				<g id="Group-9" transform="translate(65.000000, 50.000000)">
					<path id="Fill-1" d="M4,4v12h4v2l2.667-2H20V4H4z M6,22v-4H4c-1.103,0-2-0.897-2-2V4c0-1.103,0.897-2,2-2h16
						c1.103,0,2,0.897,2,2v12c0,1.103-0.897,2-2,2h-8.667L6,22z"/>
					<path id="Fill-3" d="M7.422,11C8.194,12.764,9.95,14,12,14s3.806-1.236,4.578-3H7.422z"/>
					<path id="Fill-5" d="M10.25,7.25C10.25,7.94,9.689,8.5,9,8.5S7.75,7.94,7.75,7.25S8.311,6,9,6S10.25,6.56,10.25,7.25"/>
					<path id="Fill-7" d="M16.25,7.25c0,0.69-0.561,1.25-1.25,1.25s-1.25-0.56-1.25-1.25S14.311,6,15,6S16.25,6.56,16.25,7.25"/>
				</g>
			</g>
		</g>
	</g>
</g>
</svg>
