<?xml version="1.0" encoding="utf-8"?>
<!-- Generator: Adobe Illustrator 22.0.1, SVG Export Plug-In . SVG Version: 6.00 Build 0)  -->
<svg fill="#90c53d" version="1.1" id="Layer_1" xmlns="http://www.w3.org/2000/svg" xmlns:xlink="http://www.w3.org/1999/xlink" x="0px" y="0px"
	 viewBox="0 0 24 24" style="enable-background:new 0 0 24 24;" xml:space="preserve">
<style type="text/css">
	.st0{filter:url(#Adobe_OpacityMaskFilter);}
	.st1{fill:#FFFFFF;}
	.st2{mask:url(#mask-2_2_);}
</style>
<g id="Page-1">
	<g id="_x31_366-Company-3-2" transform="translate(-1038.000000, -631.000000)">
		<g id="Group-11-Copy-8" transform="translate(653.000000, 407.000000)">
			<g id="Group-13-Copy-6" transform="translate(320.000000, 175.000000)">
				<g id="Group-3" transform="translate(65.000000, 49.000000)">
					<g id="Clip-2">
					</g>
					<defs>
						<filter id="Adobe_OpacityMaskFilter" filterUnits="userSpaceOnUse" x="0.999" y="3" width="21.001" height="18">
							<feColorMatrix  type="matrix" values="1 0 0 0 0  0 1 0 0 0  0 0 1 0 0  0 0 0 1 0"/>
						</filter>
					</defs>
					<mask maskUnits="userSpaceOnUse" x="0.999" y="3" width="21.001" height="18" id="mask-2_2_">
						<g class="st0">
							<polygon id="path-1_2_" class="st1" points="1,3 22,3 22,21 1,21 							"/>
						</g>
					</mask>
					<path id="Fill-1" class="st2" d="M18.166,19h-6.973l-4.193-1.677V12h1c0.4,0,0.762-0.238,0.919-0.606L11.66,5H13v4
						c0,0.552,0.448,1,1,1h5.802L18.166,19z M3,19h2v-8H3V19z M21.767,8.359C21.577,8.132,21.296,8,21,8h-6V4c0-0.552-0.447-1-1-1
						h-3c-0.399,0-0.761,0.238-0.918,0.606L7.34,10H6.999c0-0.552-0.447-1-1-1H2c-0.552,0-1,0.448-1,1v10c0,0.552,0.448,1,1,1h4
						c0.553,0,1-0.448,1-1v-0.522l3.629,1.451C10.747,20.976,10.873,21,11,21h8c0.484,0,0.898-0.346,0.984-0.821l2-11
						C22.038,8.887,21.958,8.587,21.767,8.359z"/>
				</g>
			</g>
		</g>
	</g>
</g>
</svg>
