<?xml version="1.0" encoding="utf-8"?>
<!-- Generator: Adobe Illustrator 22.0.1, SVG Export Plug-In . SVG Version: 6.00 Build 0)  -->
<svg fill="#90c53d" version="1.1" id="Layer_1" xmlns="http://www.w3.org/2000/svg" xmlns:xlink="http://www.w3.org/1999/xlink" x="0px" y="0px"
	 viewBox="0 0 24 24" style="enable-background:new 0 0 24 24;" xml:space="preserve">
<g id="Page-1">
	<g id="_x31_366-Company-3-2" transform="translate(-878.000000, -477.000000)">
		<g id="Group-11-Copy-8" transform="translate(653.000000, 407.000000)">
			<g id="Group-13-Copy" transform="translate(160.000000, 22.000000)">
				<g id="Group-9" transform="translate(65.000000, 48.000000)">
					<path id="Fill-1" d="M9,11.5c0.965,0,1.75-0.785,1.75-1.75S9.965,8,9,8S7.25,8.785,7.25,9.75S8.035,11.5,9,11.5"/>
					<path id="Fill-3" d="M12,20c-4.411,0-8-3.589-8-8s3.589-8,8-8s8,3.589,8,8S16.411,20,12,20 M12,2C6.486,2,2,6.486,2,12
						c0,5.515,4.486,10,10,10s10-4.485,10-10C22,6.486,17.514,2,12,2"/>
					<path id="Fill-5" d="M12,16c-1.268,0-2.434-0.582-3.199-1.598l-1.598,1.203C8.35,17.128,10.098,18,12,18
						c1.905,0,3.655-0.874,4.8-2.399l-1.6-1.202C14.437,15.417,13.27,16,12,16"/>
					<polygon id="Fill-7" points="13,11 17,11 17,9 13,9 					"/>
				</g>
			</g>
		</g>
	</g>
</g>
</svg>
