<svg xmlns="http://www.w3.org/2000/svg" viewBox="0 0 40 40">
    <g fill="none" fill-rule="evenodd">
        <circle cx="20" cy="20" r="20" fill="#FCBF7D" opacity=".3"/>
        <g fill="#000" fill-rule="nonzero" opacity=".2">
            <path d="M27.389 11.465V9.622c0-.343-.264-.621-.59-.621H13.58c-.325 0-.59.278-.59.62v3.543H27.39v-1.699zM22.887 23.516h-4.678c-.373 0-.676.319-.676.712 0 .393.303.712.676.712h4.678c.373 0 .676-.319.676-.712 0-.393-.303-.712-.676-.712zM22.887 26.218h-4.678c-.373 0-.676.319-.676.712 0 .394.303.712.676.712h4.678c.373 0 .676-.318.676-.712 0-.393-.303-.712-.676-.712z"/>
            <path d="M29.406 14.533H11.595c-.326 0-.59.278-.59.621v8.873c0 .343.264.621.59.621h3.3v6.345h8.386l2.824-.01v-6.335h3.3c.326 0 .59-.278.59-.621v-8.873c0-.343-.264-.621-.59-.621zm-2.816 7.979h-1.516V29.915l-9.148-.009-.003-7.394H14.41c-.373 0-.676-.319-.676-.712 0-.394.303-.712.676-.712h12.18c.374 0 .676.318.676.712 0 .393-.302.712-.676.712z"/>
        </g>
    </g>
</svg>
