<svg xmlns="http://www.w3.org/2000/svg" viewBox="0 0 40 40">
    <g fill="none" fill-rule="evenodd" opacity=".2">
        <circle cx="20" cy="20" r="20" fill="#F8E71C"/>
        <g fill="#000" fill-rule="nonzero">
            <path d="M28.15 23.657c-1.367-.724-3.8-1.431-3.8-1.431s-.022.219-.538 1.11c-.26.451-1.815 1.876-3.357 1.872-1.513-.004-3.014-1.43-3.27-1.871-.515-.892-.537-1.111-.537-1.111s-2.437.707-3.804 1.43c-1.366.725-1.904 1.853-1.837 4.9.014.626.028 1.092.04 1.438h18.9c.013-.346.027-.812.04-1.438.068-3.047-.47-4.175-1.837-4.9z"/>
            <path d="M20.514 22.615c2.14 0 3.914-2.61 4.246-6.028v-.458c-1.078-.828-2.577-1.342-4.235-1.342-1.687 0-3.21.532-4.29 1.385.223 3.62 2.053 6.443 4.279 6.443zM20.497 13.217c1.68 0 3.195.527 4.275 1.373h.005V9.346c-1.078-.828-2.577-1.342-4.235-1.342-1.705 0-3.241.543-4.324 1.412v5.174h.004c1.08-.846 2.596-1.373 4.275-1.373zm-1.621-3.07h1.13V8.99h.988v1.155h1.13v1.008h-1.13v1.156h-.987v-1.156h-1.131v-1.008z"/>
        </g>
    </g>
</svg>
