<svg xmlns="http://www.w3.org/2000/svg" viewBox="0 0 40 40">
    <g fill="none" fill-rule="evenodd" opacity=".2">
        <circle cx="20" cy="20" r="20" fill="#3B8CEB"/>
        <g fill="#000" fill-rule="nonzero">
            <path d="M18.59 19.991a.501.501 0 0 0 .532-.017l3.61-2.42a.561.561 0 0 0 .244-.467.561.561 0 0 0-.243-.467l-3.61-2.42a.5.5 0 0 0-.534-.018.559.559 0 0 0-.27.485v4.84c0 .201.103.387.27.484z"/>
            <path d="M11.732 25.028h16.535c.401 0 .727-.344.727-.768V9.77c0-.425-.326-.769-.727-.769H11.732c-.402 0-.727.344-.727.768V24.26c0 .424.325.768.727.768zm8.331-13.047c2.549 0 4.615 2.183 4.615 4.876 0 2.693-2.066 4.875-4.615 4.875-2.548 0-4.614-2.182-4.614-4.875s2.066-4.876 4.614-4.876zM28.336 26.6H11.694c-.365 0-.66.313-.66.698v2.997c0 .385.295.697.66.697h16.642c.364 0 .66-.312.66-.697v-2.997c0-.385-.296-.697-.66-.697zm-5.198 3.016h-5.936c-.428 0-.776-.367-.776-.82 0-.452.348-.82.776-.82h5.936c.428 0 .776.368.776.82 0 .453-.348.82-.776.82z"/>
        </g>
    </g>
</svg>
