<svg xmlns="http://www.w3.org/2000/svg" width="44" height="40" viewBox="0 0 44 40">
    <g fill="#383F4A" fill-rule="evenodd">
        <path d="M12 25.08c1.676-1.438 4-3.954 4-6.16s-1.794-4-4-4-4 1.794-4 4 2.322 4.72 4 6.16"/>
        <path d="M39.999 8v4l-.004 24H3.999V4h36v4zm0-8h-36c-2.206 0-4 1.794-4 4v32c0 2.208 1.794 4 4 4h36c2.206 0 4-1.792 4-4V4c0-2.206-1.794-4-4-4z"/>
        <path d="M12 6c-1.598 0-3.17.268-4.666.798a2 2 0 1 0 1.332 3.772A9.967 9.967 0 0 1 12 10c5.514 0 10 4.486 10 10s-4.486 10-10 10a9.998 9.998 0 0 1-3.334-.568 2 2 0 1 0-1.334 3.772C8.828 33.732 10.398 34 12 34c7.72 0 14-6.28 14-14S19.72 6 12 6M36 10h-6a2 2 0 0 0 0 4h6a2 2 0 0 0 0-4M36 18h-6a2 2 0 0 0 0 4h6a2 2 0 0 0 0-4M36 26h-6a2 2 0 0 0 0 4h6a2 2 0 0 0 0-4"/>
    </g>
</svg>
