<svg xmlns="http://www.w3.org/2000/svg" width="40" height="39" viewBox="0 0 40 39">
    <g fill="#009AEB" fill-rule="evenodd">
        <path d="M36.364 3.636h-5.455V0h-3.636v10.91h3.636V7.272h5.455v27.272H3.636V7.273h3.637V3.636H3.636A3.638 3.638 0 0 0 0 7.273v27.272a3.638 3.638 0 0 0 3.636 3.637h32.728A3.638 3.638 0 0 0 40 34.545V7.273a3.638 3.638 0 0 0-3.636-3.637"/>
        <path d="M12.727 7.273h12.728V3.636H12.727V0H9.091v10.91h3.636zM7.273 21.818h7.272v-7.273H7.273zM16.364 21.818h7.272v-7.273h-7.272zM25.455 21.818h7.272v-7.273h-7.272zM7.273 30.91h7.272v-7.274H7.273zM16.364 30.91h7.272v-7.274h-7.272z"/>
    </g>
</svg>
