<svg xmlns="http://www.w3.org/2000/svg" width="44" height="40" viewBox="0 0 44 40">
    <g fill="#009AEB" fill-rule="evenodd">
        <path d="M4 36V12h35.998l-.004 24H4zM4 8h6V4H4v4zm10 0h6V4h-6v4zm26 0H24V4h16v4zm0-8H4C1.794 0 0 1.794 0 4v32c0 2.208 1.794 4 4 4h36c2.206 0 4-1.792 4-4V4c0-2.206-1.794-4-4-4z"/>
        <path d="M14 16c-2.206 0-4 1.794-4 4s2.322 4.72 4 6.16c1.676-1.438 4-3.954 4-6.16s-1.794-4-4-4M30 21.92c-2.206 0-4 1.795-4 4 0 2.207 2.322 4.72 4 6.159 1.676-1.438 4-3.952 4-6.158 0-2.206-1.794-4-4-4"/>
    </g>
</svg>
