<?xml version="1.0" encoding="utf-8"?>
<!-- Generator: Adobe Illustrator 22.0.1, SVG Export Plug-In . SVG Version: 6.00 Build 0)  -->
<svg fill="#90c53d" version="1.1" id="Layer_1" xmlns="http://www.w3.org/2000/svg" xmlns:xlink="http://www.w3.org/1999/xlink" x="0px" y="0px"
	 viewBox="0 0 24 24" style="enable-background:new 0 0 24 24;" xml:space="preserve">
<g id="Page-1">
	<g id="_x31_366-Company-3-2" transform="translate(-880.000000, -630.000000)">
		<g id="Group-11-Copy-8" transform="translate(653.000000, 407.000000)">
			<g id="Group-13-Copy-5" transform="translate(160.000000, 175.000000)">
				<g id="Group-9" transform="translate(67.000000, 48.000000)">
					<path id="Fill-2" d="M10.123,20c0.829-1.208,1.449-2.522,1.896-3.672c0.454,1.134,1.081,2.44,1.915,3.672H10.123z
						 M13.099,13.266l0.315-0.315l1.861-1.861l-1.414-1.414L13,10.537V7h2c0.552,0,1-0.448,1-1s-0.448-1-1-1h-1.882l0.776-1.553
						c0.155-0.31,0.139-0.678-0.043-0.973C13.668,2.18,13.347,2,13,2h-2c-0.347,0-0.669,0.18-0.851,0.474
						C9.967,2.769,9.95,3.137,10.105,3.447L10.882,5H9C8.447,5,8,5.448,8,6s0.447,1,1,1h2v3.537l-0.861-0.861L8.724,11.09
						l1.861,1.861l0.32,0.32c-0.332,1.281-1.419,4.873-3.605,7.015c-0.29,0.284-0.38,0.716-0.226,1.092C7.227,21.754,7.594,22,8,22
						h8c0.398,0,0.759-0.237,0.917-0.603c0.159-0.366,0.085-0.791-0.189-1.082C14.536,17.979,13.441,14.522,13.099,13.266z"/>
					<path id="Fill-4" d="M18.432,9.099c-0.676-0.676-1.644-0.99-2.587-0.842c-0.546,0.086-0.919,0.597-0.833,1.143
						c0.086,0.546,0.598,0.919,1.143,0.833c0.32-0.052,0.634,0.052,0.863,0.281c0.189,0.189,0.292,0.439,0.292,0.707
						c0,0.267-0.103,0.518-0.293,0.707l-1.599,1.599c-0.39,0.391-0.39,1.024,0.001,1.414c0.195,0.196,0.451,0.293,0.707,0.293
						s0.512-0.097,0.707-0.293l1.599-1.599c0.567-0.567,0.878-1.32,0.878-2.121C19.31,10.419,18.999,9.666,18.432,9.099"/>
					<path id="Fill-6" d="M7.874,15.234c0.256,0,0.512-0.098,0.707-0.293c0.391-0.39,0.391-1.023,0-1.414l-1.6-1.6
						c-0.188-0.189-0.292-0.44-0.292-0.707s0.104-0.518,0.292-0.706c0.229-0.229,0.541-0.333,0.864-0.281
						C8.389,10.315,8.902,9.945,8.987,9.4C9.073,8.854,8.7,8.342,8.155,8.257C7.211,8.108,6.243,8.424,5.567,9.099
						c-0.566,0.567-0.878,1.32-0.878,2.121c0,0.802,0.312,1.555,0.878,2.121l1.6,1.6C7.362,15.136,7.618,15.234,7.874,15.234"/>
				</g>
			</g>
		</g>
	</g>
</g>
</svg>
