<?xml version="1.0" encoding="utf-8"?>
<!-- Generator: Adobe Illustrator 22.0.1, SVG Export Plug-In . SVG Version: 6.00 Build 0)  -->
<svg fill="#90c53d" version="1.1" id="Layer_1" xmlns="http://www.w3.org/2000/svg" xmlns:xlink="http://www.w3.org/1999/xlink" x="0px" y="0px"
	 viewBox="0 0 24 24" style="enable-background:new 0 0 24 24;" xml:space="preserve">
<g id="Page-1">
	<g id="_x31_366-Company-3-2" transform="translate(-718.000000, -477.000000)">
		<g id="Group-11-Copy-8" transform="translate(653.000000, 407.000000)">
			<g id="Group-13" transform="translate(0.000000, 22.000000)">
				<g id="Group-10" transform="translate(65.000000, 48.000000)">
					<path id="Fill-1" d="M7.989,20.995h8c0-1.738-1.682-3-3.999-3C9.672,17.995,7.989,19.257,7.989,20.995z M17.989,22.995h-12v-2
						c0-2.85,2.58-5,6.001-5c3.42,0,5.999,2.15,5.999,5V22.995z"/>
					<path id="Fill-3" d="M8.456,14.675c-1.374-1.765-1.27-4.314,0.351-5.936c0.85-0.85,1.98-1.318,3.182-1.318
						s2.332,0.468,3.182,1.318c1.62,1.622,1.724,4.171,0.351,5.936c0.646,0.265,1.239,0.6,1.767,0.999
						c1.796-2.536,1.566-6.078-0.704-8.349c-1.227-1.228-2.859-1.904-4.596-1.904S8.62,6.097,7.393,7.325
						c-2.27,2.271-2.5,5.813-0.704,8.349C7.217,15.275,7.81,14.94,8.456,14.675"/>
					<path id="Fill-5" d="M5.56,16.74C3.249,13.61,3.501,9.17,6.333,6.339c3.119-3.119,8.194-3.119,11.313,0
						c2.832,2.832,3.084,7.273,0.773,10.402c0.464,0.545,0.834,1.157,1.099,1.819c3.424-3.923,3.279-9.899-0.458-13.636
						c-3.898-3.898-10.243-3.898-14.141,0C1.183,8.66,1.037,14.636,4.46,18.559C4.726,17.896,5.097,17.285,5.56,16.74"/>
					<path id="Fill-8" d="M11.989,10.995c-0.551,0-1,0.449-1,1s0.449,1,1,1c0.551,0,1-0.449,1-1S12.54,10.995,11.989,10.995
						 M11.989,14.995c-1.654,0-3-1.346-3-3s1.346-3,3-3s3,1.346,3,3S13.643,14.995,11.989,14.995"/>
				</g>
			</g>
		</g>
	</g>
</g>
</svg>
