<?xml version="1.0" encoding="utf-8"?>
<!-- Generator: Adobe Illustrator 22.0.1, SVG Export Plug-In . SVG Version: 6.00 Build 0)  -->
<svg version="1.1" id="Layer_1" xmlns="http://www.w3.org/2000/svg" xmlns:xlink="http://www.w3.org/1999/xlink" x="0px" y="0px"
	 viewBox="0 0 24 20" style="enable-background:new 0 0 24 20;" xml:space="preserve">
<title>Group 5</title>
<desc>Created with Sketch.</desc>
<g id="Page-1">
	<g id="_x31_366-Company-3-2" transform="translate(-1036.000000, -606.000000)">
		<g id="Group-11-Copy-8" transform="translate(653.000000, 383.000000)">
			<g id="Group-13-Copy-6" transform="translate(320.000000, 175.000000)">
				<g id="Group-5" transform="translate(63.000000, 48.000000)">
					<path id="Fill-1" d="M16,13c1.1,0,2-0.9,2-2c0-1.1-0.9-2-2-2s-2,0.9-2,2C14,12.1,14.9,13,16,13"/>
					<path id="Fill-3" d="M2,16h2v-6H2V16z M23,5h-1.4l-2.7-4.5c-0.1-0.2-0.4-0.4-0.7-0.5c-0.3-0.1-0.6,0-0.8,0.2L10.7,5h3.4
						l3.6-2.6L19.2,5H15v2h7v8H10v-2H8v3c0,0.6,0.4,1,1,1h6.9l-0.2,0.4c-0.2,0.3-0.5,0.6-0.9,0.6H8.4L6,15.6v-5.2L8.4,8H12v1
						c0,0.6-0.4,1-1,1H9v2h2c1.7,0,3-1.3,3-3V7c0-0.6-0.4-1-1-1H8C7.7,6,7.5,6.1,7.3,6.3L5.5,8.1C5.3,8.1,5.2,8,5,8H1
						C0.4,8,0,8.4,0,9v8c0,0.6,0.4,1,1,1h4c0.2,0,0.3-0.1,0.5-0.1l1.8,1.8C7.5,19.9,7.7,20,8,20h6.8c1.1,0,2.2-0.6,2.7-1.7l0.7-1.3
						H23c0.6,0,1-0.4,1-1V6C24,5.4,23.6,5,23,5z"/>
				</g>
			</g>
		</g>
	</g>
</g>
</svg>
