<?xml version="1.0" encoding="utf-8"?>
<!-- Generator: Adobe Illustrator 22.0.1, SVG Export Plug-In . SVG Version: 6.00 Build 0)  -->
<svg version="1.1" id="Layer_1" xmlns="http://www.w3.org/2000/svg" xmlns:xlink="http://www.w3.org/1999/xlink" x="0px" y="0px"
	 viewBox="0 0 20 21" style="enable-background:new 0 0 20 21;" xml:space="preserve">
<title>Group 10</title>
<desc>Created with Sketch.</desc>
<g id="Page-1">
	<g id="_x31_366-Company-3-2" transform="translate(-878.000000, -606.000000)">
		<g id="Group-11-Copy-8" transform="translate(653.000000, 383.000000)">
			<g id="Group-13-Copy-5" transform="translate(160.000000, 175.000000)">
				<g id="Group-10" transform="translate(65.000000, 48.000000)">
					<path id="Fill-1" d="M6,19h8c0-1.7-1.7-3-4-3C7.7,16,6,17.3,6,19z M16,21H4v-2c0-2.9,2.6-5,6-5c3.4,0,6,2.2,6,5V21z"/>
					<path id="Fill-3" d="M6.5,12.7c-1.4-1.8-1.3-4.3,0.4-5.9c0.8-0.8,2-1.3,3.2-1.3s2.3,0.5,3.2,1.3c1.6,1.6,1.7,4.2,0.4,5.9
						c0.6,0.3,1.2,0.6,1.8,1c1.8-2.5,1.6-6.1-0.7-8.3c-1.2-1.2-2.9-1.9-4.6-1.9S6.6,4.1,5.4,5.3c-2.3,2.3-2.5,5.8-0.7,8.3
						C5.2,13.3,5.8,12.9,6.5,12.7"/>
					<path id="Fill-5" d="M3.6,14.7C1.2,11.6,1.5,7.2,4.3,4.3c3.1-3.1,8.2-3.1,11.3,0c2.8,2.8,3.1,7.3,0.8,10.4
						c0.5,0.5,0.8,1.2,1.1,1.8c3.4-3.9,3.3-9.9-0.5-13.6C13.2-1,6.8-1,2.9,2.9C-0.8,6.7-1,12.6,2.5,16.6C2.7,15.9,3.1,15.3,3.6,14.7
						"/>
					<path id="Fill-8" d="M10,9c-0.6,0-1,0.4-1,1s0.4,1,1,1c0.6,0,1-0.4,1-1S10.5,9,10,9 M10,13c-1.7,0-3-1.3-3-3s1.3-3,3-3
						s3,1.3,3,3S11.6,13,10,13"/>
				</g>
			</g>
		</g>
	</g>
</g>
</svg>
