<?xml version="1.0" encoding="utf-8"?>
<!-- Generator: Adobe Illustrator 22.0.1, SVG Export Plug-In . SVG Version: 6.00 Build 0)  -->
<svg version="1.1" id="Layer_1" xmlns="http://www.w3.org/2000/svg" xmlns:xlink="http://www.w3.org/1999/xlink" x="0px" y="0px"
	 viewBox="0 0 20 20" style="enable-background:new 0 0 20 20;" xml:space="preserve">
<style type="text/css">
	.st0{filter:url(#Adobe_OpacityMaskFilter);}
	.st1{fill:#FFFFFF;}
	.st2{mask:url(#mask-2_1_);}
</style>
<title>Group 3</title>
<desc>Created with Sketch.</desc>
<g id="Page-1">
	<g id="_x31_366-Company-3-2" transform="translate(-718.000000, -453.000000)">
		<g id="Group-11-Copy-8" transform="translate(653.000000, 383.000000)">
			<g id="Group-13" transform="translate(0.000000, 22.000000)">
				<g id="Group-3" transform="translate(65.000000, 48.000000)">
					<g id="Clip-2">
					</g>
					<defs>
						<filter id="Adobe_OpacityMaskFilter" filterUnits="userSpaceOnUse" x="0" y="0" width="20" height="20">
							<feColorMatrix  type="matrix" values="1 0 0 0 0  0 1 0 0 0  0 0 1 0 0  0 0 0 1 0"/>
						</filter>
					</defs>
					<mask maskUnits="userSpaceOnUse" x="0" y="0" width="20" height="20" id="mask-2_1_">
						<g class="st0">
							<polygon id="path-1_1_" class="st1" points="0,0 20,0 20,20 0,20 							"/>
						</g>
					</mask>
					<path id="Fill-1" class="st2" d="M17.2,13.5L14,8h3.7c0.2,0.6,0.3,1.3,0.3,2C18,11.2,17.7,12.4,17.2,13.5z M10.6,18l3.4-6
						l1.9,3.3C14.6,16.8,12.7,17.8,10.6,18z M3.1,14h7.5l-2.2,3.8C6.1,17.4,4.2,15.9,3.1,14z M2.8,6.5L6,12H2.3
						C2.1,11.4,2,10.7,2,10C2,8.8,2.3,7.6,2.8,6.5z M9.4,2L6,8L4,4.7C5.4,3.2,7.3,2.2,9.4,2z M12.9,10l-1.2,2H8.3l-1.2-2l1.2-2h3.5
						L12.9,10z M16.9,6H9.4l2.2-3.8C13.9,2.6,15.8,4.1,16.9,6z M10,0C4.5,0,0,4.5,0,10c0,5.5,4.5,10,10,10s10-4.5,10-10
						C20,4.5,15.5,0,10,0z"/>
				</g>
			</g>
		</g>
	</g>
</g>
</svg>
