<?xml version="1.0" encoding="utf-8"?>
<!-- Generator: Adobe Illustrator 22.0.1, SVG Export Plug-In . SVG Version: 6.00 Build 0)  -->
<svg fill="#90c53d" version="1.1" id="Layer_1" xmlns="http://www.w3.org/2000/svg" xmlns:xlink="http://www.w3.org/1999/xlink" x="0px" y="0px"
	 viewBox="0 0 24 24" style="enable-background:new 0 0 24 24;" xml:space="preserve">
<g id="Page-1">
	<g id="_x31_366-Company-3-2" transform="translate(-720.000000, -630.000000)">
		<g id="Group-11-Copy-8" transform="translate(653.000000, 407.000000)">
			<g id="Group-13-Copy-4" transform="translate(0.000000, 175.000000)">
				<path id="Fill-1" d="M73.581,60H77.5c0.553,0,1,0.448,1,1v5.15L83.42,60H79.5c-0.552,0-1-0.448-1-1v-5.149L73.581,60z
					 M77.169,69.943c-0.4-0.14-0.669-0.518-0.669-0.943v-7h-5c-0.384,0-0.734-0.221-0.901-0.567
					c-0.166-0.346-0.12-0.756,0.121-1.058l8-10c0.265-0.331,0.711-0.459,1.111-0.318C80.232,50.197,80.5,50.575,80.5,51v7h5
					c0.385,0,0.735,0.221,0.902,0.567c0.166,0.346,0.119,0.757-0.121,1.058l-8,10C78.088,69.867,77.798,70,77.5,70
					C77.39,70,77.278,69.982,77.169,69.943z"/>
			</g>
		</g>
	</g>
</g>
</svg>
