<svg xmlns="http://www.w3.org/2000/svg" width="109" height="122" viewBox="0 0 109 122">
    <path fill="#C066D3" fill-rule="nonzero" d="M54.95 31.505c8.616-.025 15.583-6.996 15.567-15.576C70.5 7.349 63.507.404 54.89.413 46.274.42 39.294 7.379 39.294 15.959a15.531 15.531 0 0 0 4.594 11.003 15.663 15.663 0 0 0 11.062 4.543zm0-25.71c5.631.025 10.178 4.586 10.162 10.193-.017 5.608-4.59 10.142-10.222 10.134-5.63-.008-10.19-4.556-10.191-10.163a10.151 10.151 0 0 1 3.008-7.2 10.237 10.237 0 0 1 7.243-2.964zM109 41.677a2.697 2.697 0 0 1-2.702 2.692h-48.69V74.33c.261-.278.513-.556.793-.825 9.774-9.733 25.277-10.128 34.555-.897a22.912 22.912 0 0 1 6.711 17.26 2.697 2.697 0 0 1-2.702 2.592h-.1a2.696 2.696 0 0 1-2.603-2.781 17.605 17.605 0 0 0-5.125-13.268c-7.207-7.176-19.25-6.745-26.908.898a20.526 20.526 0 0 0-4.576 6.943v35.057A2.697 2.697 0 0 1 54.95 122a2.697 2.697 0 0 1-2.702-2.691V44.306c-14.954-.61-21.791-6.136-27.35-10.64-4.665-3.75-8.332-6.754-15.728-6.754a2.815 2.815 0 0 1-2.864-2.557 2.685 2.685 0 0 1 .742-1.99 2.708 2.708 0 0 1 1.96-.836c9.423 0 14.413 4.046 19.26 7.957 5.765 4.665 11.71 9.491 26.682 9.491h51.348c.724 0 1.418.29 1.927.804.508.515.787 1.21.775 1.932v-.036zm-1.126-7.589h-2.703V20.632h2.703v13.456zm-4.054 0h-2.702V17.941h2.702v16.147zm-8.107 0H93.01V27.36h2.703v6.728zm4.054 0h-2.703V20.632h2.703v13.456zm-77.84 79.157h12.17v2.341h-4.74c.084.327.144.66.181.996.038.297.059.597.063.897a4.473 4.473 0 0 1-.982 3.059 3.856 3.856 0 0 1-3.018 1.085h-3.675v-2.314h3.684a2.53 2.53 0 0 0 1.685-.43 1.79 1.79 0 0 0 .468-1.382c-.004-.3-.025-.6-.063-.897a7.301 7.301 0 0 0-.18-1.005h-5.594v-2.35zm1.846-6.28h10.323v2.36H23.773v2.771h-1.847v-8.037h1.847v2.906zm5.954-12.388h-3.405a4.515 4.515 0 0 0-3.35 1.21A4.332 4.332 0 0 0 21.754 99a4.278 4.278 0 0 0 1.216 3.203 4.579 4.579 0 0 0 3.351 1.193h3.405a4.515 4.515 0 0 0 3.351-1.202 4.874 4.874 0 0 0 0-6.414 4.515 4.515 0 0 0-3.35-1.202zm2.027 5.965c-.6.388-1.312.571-2.027.52h-3.423a3.271 3.271 0 0 1-2.009-.52A1.79 1.79 0 0 1 23.62 99a1.862 1.862 0 0 1 .675-1.551 3.18 3.18 0 0 1 2.01-.539h3.422a3.271 3.271 0 0 1 2.027.53c.463.379.714.956.676 1.551a1.79 1.79 0 0 1-.685 1.543l.01.01zm-8.107-10.334c.001.316.147.613.396.808.323.243.721.367 1.126.35v2.278h-.054c-.92.09-1.83-.24-2.477-.897a3.66 3.66 0 0 1-.856-2.512 3.58 3.58 0 0 1 .955-2.628 3.495 3.495 0 0 1 2.594-.96 3.714 3.714 0 0 1 1.946.538c.587.35 1.101.81 1.513 1.355.21.26.482.46.793.583.356.107.727.155 1.1.143v2.35a3.435 3.435 0 0 1-1.676-.331 6.016 6.016 0 0 1-1.325-1.238 4.008 4.008 0 0 0-1.045-.754 2.838 2.838 0 0 0-1.288-.287 2.124 2.124 0 0 0-1.243.323 1.049 1.049 0 0 0-.486.88h.027zm10.476 1.373H32.07v-2.333h2.027l.027 2.333zM.793 94.765h12.134v2.342H2.603v3.91h10.324v2.351H.757l.036-8.603zm7.756-10.441H5.153a4.516 4.516 0 0 0-3.351 1.184 4.332 4.332 0 0 0-1.216 3.211 4.278 4.278 0 0 0 1.216 3.203 4.579 4.579 0 0 0 3.35 1.193H8.55a4.515 4.515 0 0 0 3.35-1.202 4.874 4.874 0 0 0 0-6.414 4.516 4.516 0 0 0-3.35-1.175zm2.027 5.965c-.601.388-1.313.57-2.027.52H5.135a3.271 3.271 0 0 1-2.01-.52 1.79 1.79 0 0 1-.675-1.543 1.862 1.862 0 0 1 .676-1.552 3.18 3.18 0 0 1 2.009-.538h3.414a3.271 3.271 0 0 1 2.027.53c.462.378.714.956.675 1.551a1.79 1.79 0 0 1-.675 1.525v.027zm2.35-13.76H8.19c.082.326.143.66.18.995.037.297.058.597.063.897a4.473 4.473 0 0 1-.982 3.059 3.856 3.856 0 0 1-3.018 1.085H.757v-2.35H4.44a2.53 2.53 0 0 0 1.685-.377 1.79 1.79 0 0 0 .468-1.381c-.004-.3-.025-.6-.063-.897a7.301 7.301 0 0 0-.18-1.005H.757v-2.341h12.17v2.314zm0-4.208H.757v-6.79h1.847v4.44h3.108v-3.723h1.802v3.723h3.531v-4.486h1.802l.08 6.836zM5.262 55.707v.054l7.675 2.189v1.57l-7.621 2.17v.055h7.603v2.34H.757V61l9.008-2.252v-.053l-9.008-2.27v-3.05h12.17v2.332H5.26zm7.206-7.678c.459.481.697 1.13.658 1.794.005.253-.022.506-.081.753-.077.269-.17.532-.28.79l-1.729-.234c.068-.176.125-.355.171-.538a2.02 2.02 0 0 0 .054-.475 1.118 1.118 0 0 0-.297-.897 2.165 2.165 0 0 0-.9-.449l-.433-.134-8.846 3.668v-2.502l5.522-2.019.288-.071v-.045L.73 45.624V43.15l9.828 3.75c.696.25 1.335.634 1.882 1.13h.027zm.487-7.312H10.9v-2.332h2.027l.027 2.333zm-11.522 1.14a3.66 3.66 0 0 1-.855-2.512 3.58 3.58 0 0 1 .954-2.628 3.495 3.495 0 0 1 2.595-.96 3.714 3.714 0 0 1 1.946.538c.59.358 1.103.827 1.513 1.381.209.26.482.461.793.584.356.107.727.155 1.099.143v2.35a3.435 3.435 0 0 1-1.676-.385 6.016 6.016 0 0 1-1.324-1.238 4.01 4.01 0 0 0-1.072-.736 2.838 2.838 0 0 0-1.288-.287 2.124 2.124 0 0 0-1.243.323c-.297.202-.47.54-.46.897.001.315.148.613.397.807.323.244.72.368 1.126.35v2.279h-.054a3.061 3.061 0 0 1-2.45-.906z"/>
</svg>
