<svg xmlns="http://www.w3.org/2000/svg" width="28" height="28" viewBox="0 0 28 28">
    <g fill="none" fill-rule="evenodd" opacity=".5">
        <path d="M-2-2h32v32H-2z"/>
        <path fill="#FFF" fill-rule="nonzero" d="M27.333 5.627L21.2.48l-1.72 2.04 6.133 5.147 1.72-2.04zM8.507 2.52L6.8.48.667 5.613l1.72 2.04 6.12-5.133zM14 3.333c-6.627 0-12 5.374-12 12 0 6.627 5.36 12 12 12 6.627 0 12-5.373 12-12 0-6.626-5.373-12-12-12zm0 21.334a9.327 9.327 0 0 1-9.333-9.334A9.327 9.327 0 0 1 14 6a9.327 9.327 0 0 1 9.333 9.333A9.327 9.327 0 0 1 14 24.667zm-1.947-7.294l-2.84-2.84L7.8 15.947l4.24 4.24 8-8-1.413-1.414-6.574 6.6z"/>
    </g>
</svg>
