<svg xmlns="http://www.w3.org/2000/svg" width="26" height="32" viewBox="0 0 26 32">
    <g fill="none" fill-rule="evenodd">
        <path d="M-3 0h32v32H-3z"/>
        <g fill="#FFF" opacity=".5">
            <path d="M17.944 10.667c-.077 1.629-.302 4.552-.944 7.633-1.728.31-4.549.635-5.68-.3-1.156-.955-4.08-.596-5.794-.279a51.493 51.493 0 0 1-.832-7.054h13.25zM7.32 28h8c.457 0 .883-.235 1.128-.621 4.157-6.584 4.205-17.58 4.205-18.046 0-.736-.597-1.333-1.333-1.333h-16c-.736 0-1.333.597-1.333 1.333 0 .466.048 11.462 4.206 18.046.244.386.67.621 1.127.621zM25.452 14.435a5.359 5.359 0 0 0-2.806-3.028c-.236-.107-.478-.173-.72-.245a53.841 53.841 0 0 1-.22 2.77c.573.315 1.017.81 1.246 1.43a2.71 2.71 0 0 1-.078 2.086c-.403.876-1.266 1.77-2.152 2.384a32.62 32.62 0 0 1-.964 3.338c2.398-.51 4.737-2.862 5.538-4.61v.002a5.365 5.365 0 0 0 .156-4.127M7.361 5.333h2.667V0H7.361zM12.695 6.667h2.666v-4h-2.666zM20.653 29.333H1.986a1.334 1.334 0 0 0 0 2.667h18.667a1.334 1.334 0 0 0 0-2.667"/>
        </g>
    </g>
</svg>
