<svg xmlns="http://www.w3.org/2000/svg" width="103" height="138" viewBox="0 0 103 138">
    <path fill="#008CB6" fill-rule="nonzero" d="M51.5 71.363c8.648 0 15.658-6.998 15.658-15.63 0-8.634-7.01-15.632-15.658-15.632S35.842 47.1 35.842 55.732c.01 8.629 7.015 15.621 15.658 15.631zm0-25.85c4.14 0 7.873 2.49 9.458 6.308a10.206 10.206 0 0 1-2.22 11.137 10.25 10.25 0 0 1-11.155 2.215 10.22 10.22 0 0 1-6.32-9.44c.005-5.643 4.585-10.215 10.237-10.22zm19.362 51.51c1.033 0 2.064-.09 3.081-.27a15.27 15.27 0 0 0 12.152-10.742c1.003-3.436 2.196-12.474-8.393-22.17a2.714 2.714 0 0 0-3.746.24 2.703 2.703 0 0 0 .087 3.746c5.881 5.412 8.375 11.455 6.857 16.669a9.761 9.761 0 0 1-7.887 6.927c-2.991.532-10.843.514-19.155-10.707a2.574 2.574 0 0 0-1.454-1.172h-.064a2.714 2.714 0 0 0-.397-.1h-.172l-.271-.071h-.47a2.714 2.714 0 0 0-.397.099h-.064a2.574 2.574 0 0 0-1.427 1.181c-8.358 11.22-16.173 11.23-19.155 10.707a9.761 9.761 0 0 1-7.887-6.927c-1.545-5.142.958-11.212 6.812-16.597a2.704 2.704 0 0 0-.846-4.804 2.713 2.713 0 0 0-2.768.818c-10.589 9.696-9.396 18.734-8.393 22.17a15.27 15.27 0 0 0 12.152 10.742c1.017.18 2.048.27 3.08.27 5.675 0 11.466-2.705 16.68-7.72v20.899c-21.16 3.265-30.494 10.652-32.156 16.533a7.155 7.155 0 0 0 2.52 7.756c2.196 1.804 5.91 2.986 11.132 2.986 5.42 0 12.504-1.299 21.178-4.582 8.674 3.283 15.748 4.582 21.178 4.582 5.222 0 8.936-1.2 11.131-2.986a7.155 7.155 0 0 0 2.521-7.756c-1.644-5.881-10.977-13.268-32.11-16.533V89.339c5.213 5.006 10.986 7.694 16.651 7.694v-.01zm10.255 31.173a1.802 1.802 0 0 1-.723 2.101c-2.566 2.084-9.839 2.896-21.368-.568a103.36 103.36 0 0 0 5.421-2.706 2.705 2.705 0 0 0 1.161-3.648 2.714 2.714 0 0 0-3.654-1.16 120.724 120.724 0 0 1-10.463 4.817c-3.244-1.299-6.731-2.886-10.463-4.816a2.714 2.714 0 0 0-3.654 1.159 2.705 2.705 0 0 0 1.16 3.648c1.868.962 3.675 1.864 5.422 2.706-11.538 3.464-18.802 2.652-21.377.568a1.802 1.802 0 0 1-.723-2.101c1.066-3.725 9.767-10.183 29.644-12.916 19.877 2.733 28.578 9.19 29.617 12.916zm-63.878-97.9l-10.77-10.75-1.698 1.695 2.864 2.86-6.207 6.196a1.802 1.802 0 0 0 0 2.552l6.622 6.612a1.809 1.809 0 0 0 2.557 0l6.623-6.612a1.802 1.802 0 0 0 .009-2.552zM3.614 31.57l5.773-5.764 5.72 5.764H3.614zm14.203 6.007c0-1.597 2.413-4.203 2.413-4.203s2.358 2.606 2.358 4.203a2.407 2.407 0 0 1-1.16 2.208 2.416 2.416 0 0 1-2.497 0 2.407 2.407 0 0 1-1.159-2.208h.045zm84.876-15.469l-2.82-2.814a1.203 1.203 0 0 0-1.698 0l-3.758 3.752-2.133-2.11a.271.271 0 0 0-.38 0l-1.318 1.316a.27.27 0 0 0 0 .38l1.518 1.514-10.39 10.337a1.352 1.352 0 0 0-.398.956v3.833c0 .728.59 1.317 1.319 1.317h3.84c.36 0 .704-.143.958-.397l10.345-10.327 1.518 1.515a.271.271 0 0 0 .38 0l1.318-1.317a.27.27 0 0 0 0-.378l-2.123-2.12 3.759-3.752a1.199 1.199 0 0 0 .018-1.705h.045zM86.375 37.882l-2.349-2.345 9.849-9.831 2.349 2.345-9.849 9.831zM40.965 9.813L44.67 8.46c.207-.062.427-.062.633 0l5.864 2.138c.206.063.426.063.632 0l5.828-2.138c.206-.062.426-.062.632 0l3.74 1.353c.181.063.181.226 0 .226L51.79 13.764a1.086 1.086 0 0 1-.632 0l-10.21-3.716c-.154-.072-.154-.235.018-.235zm0-5.538L51.175.568c.206-.063.426-.063.632 0l10.219 3.707c.18.072.18.235 0 .235l-10.21 3.725a1.086 1.086 0 0 1-.632 0L40.965 4.51c-.163 0-.163-.163 0-.235zm0 11.058l3.759-1.353c.192-.054.395-.054.587 0l5.864 2.138c.206.063.426.063.632 0l5.837-2.138c.206-.062.426-.062.632 0l3.74 1.353c.182.072.182.235 0 .235l-10.209 3.725a1.086 1.086 0 0 1-.632 0l-10.21-3.716c-.172-.081-.172-.244 0-.244z"/>
</svg>
