<svg xmlns="http://www.w3.org/2000/svg" width="86" height="142" viewBox="0 0 86 142">
    <g fill="#009256" fill-rule="nonzero">
        <path d="M42.547 44.442c-8.662.01-15.676 6.988-15.67 15.587.007 8.6 7.033 15.567 15.695 15.564 8.662-.004 15.682-6.976 15.682-15.576-.01-8.604-7.04-15.575-15.707-15.575zm0 25.758c-5.662-.01-10.245-4.573-10.238-10.194.007-5.622 4.6-10.174 10.262-10.171 5.663.003 10.251 4.561 10.251 10.182a10.155 10.155 0 0 1-3.013 7.204 10.304 10.304 0 0 1-7.262 2.98z"/>
        <path d="M45.263 114.292v-25.92c22.376-1.42 39.801-19.836 39.832-42.096a2.706 2.706 0 0 0-2.716-2.696 2.706 2.706 0 0 0-2.716 2.696c0 20.323-16.595 36.798-37.066 36.798-20.47 0-37.066-16.475-37.066-36.798a2.706 2.706 0 0 0-2.716-2.696A2.706 2.706 0 0 0 .1 46.276C.127 68.5 17.495 86.902 39.832 88.373v25.919C18.657 117.545 9.306 124.87 7.64 130.766a7.107 7.107 0 0 0 2.526 7.729c2.2 1.797 5.92 2.975 11.153 2.975 5.432 0 12.529-1.294 21.22-4.566 8.69 3.272 15.778 4.566 21.219 4.566 5.232 0 8.953-1.196 11.153-2.975a7.107 7.107 0 0 0 2.525-7.73c-1.63-5.895-10.98-13.22-32.173-16.473zm26.253 20.015c-2.571 2.076-9.859 2.885-21.41-.566a103.793 103.793 0 0 0 5.432-2.697 2.688 2.688 0 0 0 1.163-3.635 2.726 2.726 0 0 0-3.662-1.155 121.278 121.278 0 0 1-10.483 4.8c-3.25-1.295-6.744-2.877-10.483-4.8a2.726 2.726 0 0 0-3.661 1.155 2.688 2.688 0 0 0 1.163 3.635c1.87.96 3.681 1.858 5.432 2.697-11.56 3.45-18.839 2.642-21.419.566a1.79 1.79 0 0 1-.724-2.094c1.068-3.694 9.822-10.138 29.683-12.861 19.916 2.696 28.634 9.185 29.666 12.87a1.79 1.79 0 0 1-.697 2.094v-.01zM2.598 28.31l9.243 4.332 1.023-2.139-11.28-5.294-1.548 4.36 1.657.781zM7.668 23.727l2.643 2.076a5.126 5.126 0 0 0 3.313 1.285 3.448 3.448 0 0 0 2.716-1.393c.683-.8.954-1.869.733-2.894a5.087 5.087 0 0 0-2.028-2.903l-2.643-2.076a5.154 5.154 0 0 0-3.35-1.285 3.63 3.63 0 0 0-2.7 1.363 3.575 3.575 0 0 0-.712 2.924 5.114 5.114 0 0 0 2.028 2.903zm.172-4.665c.28-.344.735-.495 1.167-.386.64.152 1.232.46 1.72.898l2.96 2.328c.537.379.972.882 1.268 1.465.205.388.163.859-.109 1.204-.278.353-.738.51-1.177.405a4.011 4.011 0 0 1-1.729-.899L8.98 21.75a3.999 3.999 0 0 1-1.258-1.447c-.214-.4-.168-.887.118-1.24zM15.833 19.071a5.107 5.107 0 0 0 2.942 1.995 3.458 3.458 0 0 0 2.951-.755 3.371 3.371 0 0 0 1.367-2.696 5.06 5.06 0 0 0-1.367-3.235l-2.1-2.616a5.143 5.143 0 0 0-2.933-1.986 3.64 3.64 0 0 0-2.94.72 3.586 3.586 0 0 0-1.36 2.686 5.085 5.085 0 0 0 1.313 3.28l2.127 2.607zm-.905-7.118a1.147 1.147 0 0 1 1.222-.108 3.931 3.931 0 0 1 1.475 1.232l2.354 2.93c.437.487.748 1.073.905 1.707.125.42-.01.874-.344 1.16-.352.28-.837.329-1.24.125a3.994 3.994 0 0 1-1.484-1.249l-2.354-2.93a3.981 3.981 0 0 1-.905-1.698 1.119 1.119 0 0 1 .398-1.169h-.027zM23.02 7.28l4.419 9.158 2.154-1.025-5.386-11.171-3.974 2.418.787 1.635zM30.625 10.156a5.06 5.06 0 0 0 1.747 3.073 3.46 3.46 0 0 0 2.933.612 3.401 3.401 0 0 0 2.408-1.798 5.053 5.053 0 0 0 .308-3.505l-.724-3.262a5.087 5.087 0 0 0-1.747-3.074 3.642 3.642 0 0 0-2.962-.642 3.618 3.618 0 0 0-2.416 1.82 5.071 5.071 0 0 0-.298 3.513l.751 3.263zm1.52-5.896a1.127 1.127 0 0 1 2.01-.44c.406.524.671 1.143.77 1.797l.815 3.658a3.98 3.98 0 0 1 .054 1.932c-.075.443-.41.797-.85.899a1.154 1.154 0 0 1-1.169-.431 3.958 3.958 0 0 1-.778-1.798l-.815-3.658a3.954 3.954 0 0 1-.036-1.959zM42.203 12.879l2.39.036.2-12.376-4.645.396-.027 1.815 2.245-.018zM50.487 14.002a3.424 3.424 0 0 0 2.924-.521 5.08 5.08 0 0 0 1.81-3.038l.824-3.253a5.062 5.062 0 0 0-.217-3.595 3.617 3.617 0 0 0-2.377-1.866 3.642 3.642 0 0 0-2.974.58 5.098 5.098 0 0 0-1.81 3.038l-.797 3.254a5.035 5.035 0 0 0 .209 3.523 3.436 3.436 0 0 0 2.408 1.878zm-.335-4.62l.905-3.64A3.968 3.968 0 0 1 51.863 4a1.127 1.127 0 0 1 1.991.495 3.882 3.882 0 0 1-.081 1.914l-.906 3.64a4.003 4.003 0 0 1-.805 1.797 1.127 1.127 0 0 1-1.15.414 1.145 1.145 0 0 1-.86-.899 3.936 3.936 0 0 1 .109-1.977h-.01zM59.24 17.229l5.622-11.055-4.345-1.662-.833 1.626 2.037.953-4.617 9.06zM62.671 18.083c0 1.054.492 2.05 1.331 2.696a3.421 3.421 0 0 0 2.888.8 5.127 5.127 0 0 0 2.978-1.933l2.164-2.57a5.077 5.077 0 0 0 1.376-3.253 3.38 3.38 0 0 0-1.313-2.697c-.792-.704-1.87-1-2.915-.8a5.154 5.154 0 0 0-2.978 1.933l-2.164 2.57a5.06 5.06 0 0 0-1.367 3.254zm2.155.107c.16-.627.47-1.207.905-1.69l2.417-2.875a4.006 4.006 0 0 1 1.557-1.213 1.13 1.13 0 0 1 1.228.137c.345.286.485.748.356 1.175a3.892 3.892 0 0 1-.905 1.68l-2.49 2.876a4.04 4.04 0 0 1-1.511 1.223 1.13 1.13 0 0 1-1.213-.135 1.136 1.136 0 0 1-.344-1.178zM68.981 25.605L70.43 27.5l9.94-7.477-3.168-3.388-1.467 1.096 1.403 1.744zM75.816 27.43a5.095 5.095 0 0 0-2.716 2.327 3.393 3.393 0 0 0 0 3.002 3.396 3.396 0 0 0 2.245 1.977 5.148 5.148 0 0 0 3.53-.44l3.078-1.366a5.122 5.122 0 0 0 2.716-2.32 3.571 3.571 0 0 0 .013-3.014 3.614 3.614 0 0 0-2.303-1.964 5.184 5.184 0 0 0-3.53.431l-3.033 1.366zm6.12.287c.448-.006.857.253 1.04.66.184.406.105.882-.199 1.21a3.929 3.929 0 0 1-1.575 1.105l-3.449 1.528c-.588.299-1.24.45-1.901.44a1.123 1.123 0 0 1-1.023-.647c-.184-.41-.11-.887.19-1.222a3.992 3.992 0 0 1 1.593-1.133l3.45-1.528a4.035 4.035 0 0 1 1.873-.413z"/>
    </g>
</svg>
