<svg xmlns="http://www.w3.org/2000/svg" width="24" height="30" viewBox="0 0 24 30">
    <g fill="none" fill-rule="evenodd">
        <path fill-rule="nonzero" d="M-4-1h32v32H-4z"/>
        <g fill="#FFF" opacity=".5">
            <path d="M2.667 3v24h18.668l-.002-24H2.667zm18.666 26.667H2.667A2.668 2.668 0 0 1 0 27V3A2.668 2.668 0 0 1 2.667.333h18.666A2.668 2.668 0 0 1 24 3v24a2.668 2.668 0 0 1-2.667 2.667z"/>
            <path d="M9.333 9.667h5.334V7H9.333zM5.333 15h13.334v-2.667H5.333zM5.333 19h13.334v-2.667H5.333zM14.667 24.333h4v-2.666h-4zM5.333 24.333h4v-2.666h-4z"/>
        </g>
    </g>
</svg>
