<svg xmlns="http://www.w3.org/2000/svg" width="24" height="24" viewBox="0 0 24 24">
    <g fill="none" fill-rule="evenodd" opacity=".25">
        <path fill="#262C37" fill-rule="nonzero" d="M1 0h22a1 1 0 0 1 1 1v22a1 1 0 0 1-1 1H1a1 1 0 0 1-1-1V1a1 1 0 0 1 1-1z"/>
        <path fill="#FFF" d="M12 13.56c-.86 0-1.56-.7-1.56-1.56 0-.86.7-1.56 1.56-1.56.86 0 1.56.7 1.56 1.56 0 .86-.7 1.56-1.56 1.56M12 6c-3.308 0-6 2.692-6 6a6.006 6.006 0 0 0 9.392 4.955l-.68-.989A4.771 4.771 0 0 1 12 16.8 4.805 4.805 0 0 1 7.2 12c0-2.647 2.153-4.8 4.8-4.8s4.8 2.153 4.8 4.8v.47c0 .832-.359 1.33-.96 1.33l-.001.01a.637.637 0 0 0-.114-.01H15.6c-.338 0-.84-.491-.84-.822V12A2.763 2.763 0 0 0 12 9.24 2.763 2.763 0 0 0 9.24 12 2.763 2.763 0 0 0 12 14.76c.74 0 1.41-.297 1.906-.773.39.575 1.051 1.013 1.694 1.013l.001-.011c.037.007.076.01.117.01h.122c1.292 0 2.16-1.016 2.16-2.53V12c0-3.307-2.692-6-6-6"/>
    </g>
</svg>
