<svg xmlns="http://www.w3.org/2000/svg" viewBox="17.9 346.7 576 99.8"><path fill="#F0851A" d="M102 346.7H33.6c-8.6 0-15.7 7.1-15.7 15.7v68.4c0 8.6 7.1 15.7 15.7 15.7H102c8.6 0 15.7-7.1 15.7-15.7v-68.4c0-8.6-7-15.7-15.7-15.7zM92.6 370H51.5v21h41.1v8.1H51.5v24h41.1v8.2H43v-69.4h49.6v8.1z"/><path fill="#174D82" d="M448.9 391.3c.6-2.2 1.4-4.2 2.6-5.9 1.2-1.7 2.5-3.2 4-4.4 1.5-1.2 3.2-2.1 4.9-2.8 1.8-.6 3.5-1 5.3-1 2.5 0 4.9.6 7.2 1.8 2.2 1.2 4.2 2.8 5.9 4.9 1.7 2.1 2.8 4.6 3.6 7.4h-33.5zm59.9 20.9h-10v10.3h10v-10.3zm34.3-42.5c-2-.2-4-.1-6.1.3-2.1.4-4.1 1.2-5.9 2.3-1.9 1.1-3.5 2.6-4.8 4.4v-5.8h-8.2v51.5h8.5v-29.8c0-2.6.5-4.8 1.3-6.7.9-1.9 2.1-3.4 3.6-4.6 1.5-1.2 3.3-2.1 5.3-2.6s4.1-.7 6.3-.6v-8.4zm50.8 1.2h-8.5v31.6c0 2.6-.6 4.9-1.8 6.9-1.2 2-2.8 3.6-4.8 4.7-2 1.2-4.3 1.8-6.9 1.8-2.7 0-5.1-.6-6.9-1.7-1.9-1.1-3.3-2.7-4.3-4.7s-1.5-4.4-1.5-7.2v-31.4h-8.4v31c0 3.2.5 6.1 1.3 8.8.9 2.7 2.2 4.9 3.9 6.9 1.7 1.9 3.8 3.4 6.2 4.5 2.5 1.1 5.3 1.6 8.4 1.6 3.2 0 6-.6 8.6-1.8 2.5-1.2 4.7-2.9 6.5-5v5.6h8.2v-51.6zm-112.4 35.5c-1.4 3-3.4 5.4-6 7-2.6 1.6-5.7 2.5-9.3 2.5-2.1 0-4.2-.4-6.2-1.1-2-.8-3.8-1.9-5.5-3.3-1.6-1.5-3-3.3-4.1-5.4-1.1-2.1-1.8-4.5-2.1-7.2h43.3c0-3.7-.5-7-1.4-10.1-.9-3.1-2.2-5.8-3.9-8.1-1.7-2.4-3.6-4.4-5.8-6-2.2-1.6-4.6-2.9-7.1-3.8-2.5-.8-5.1-1.3-7.8-1.3-3.6 0-7 .7-10.1 2.1-3.1 1.4-5.9 3.4-8.2 5.8-2.4 2.5-4.2 5.4-5.6 8.6-1.3 3.3-2 6.8-2 10.5 0 3.8.7 7.3 2.1 10.6 1.3 3.3 3.2 6.1 5.6 8.6 2.4 2.4 5.2 4.3 8.4 5.7 3.2 1.4 6.7 2.1 10.4 2.1 4 0 7.6-.7 10.8-2 3.2-1.3 6-3.3 8.3-5.8 2.3-2.6 4-5.7 5.3-9.4h-9.1zm-42.7-35.5h-9l-14.2 41-14.3-41h-9l18.7 51.5h9.1l18.7-51.5zm-55 0h-8.5v51.5h8.5v-51.5zm-16.7 43.7c-1.6.1-3.1 0-4.5-.3s-2.7-.9-3.8-1.7c-1.1-.8-2-2-2.6-3.5-.6-1.5-1-3.3-1-5.6V379h11.7v-8.1h-11.7v-11h-8.4v11h-7v8.1h7v24.5c0 3.3.5 6.2 1.5 8.7 1 2.5 2.4 4.5 4.2 6.2 1.8 1.6 3.9 2.8 6.4 3.5 2.5.7 5.2.9 8.2.5v-7.8zm-34.8-43.7h-8.5v31.6c0 2.6-.6 4.9-1.8 6.9-1.2 2-2.8 3.6-4.8 4.7s-4.3 1.8-6.9 1.8c-2.7 0-5.1-.6-6.9-1.7-1.9-1.1-3.3-2.7-4.3-4.7s-1.5-4.4-1.5-7.2v-31.4h-8.4v31c0 3.2.5 6.1 1.3 8.8.9 2.6 2.2 4.9 3.9 6.9 1.7 1.9 3.8 3.4 6.2 4.5 2.5 1.1 5.3 1.6 8.4 1.6 3.2 0 6-.6 8.6-1.8 2.5-1.2 4.7-2.9 6.5-5v5.6h8.2v-51.6zm-51.6 35.5h-9.1c-.9 1.9-2.1 3.5-3.6 4.9-1.5 1.4-3.1 2.4-5 3.1-1.9.7-4 1.1-6.3 1.1-2.4 0-4.6-.5-6.7-1.5-2.1-1-3.9-2.3-5.5-4-1.6-1.7-2.8-3.7-3.7-6-.9-2.3-1.4-4.7-1.4-7.3 0-2.6.5-5.1 1.4-7.4.9-2.3 2.1-4.3 3.7-6.1 1.6-1.8 3.4-3.1 5.5-4.1 2.1-1 4.3-1.5 6.7-1.5 2.2 0 4.3.4 6.2 1.1 1.9.7 3.6 1.8 5 3.1 1.5 1.4 2.7 3 3.7 4.9h9.1c-1.2-3.5-2.9-6.5-5.2-9.1-2.3-2.6-5.1-4.6-8.2-6-3.2-1.4-6.7-2.1-10.6-2.1-3.6 0-6.9.7-10 2.1-3.1 1.4-5.9 3.4-8.2 5.8-2.4 2.5-4.2 5.4-5.6 8.6-1.3 3.3-2 6.8-2 10.5 0 3.8.7 7.3 2 10.5 1.3 3.3 3.2 6.1 5.6 8.6 2.4 2.5 5.1 4.4 8.2 5.8 3.1 1.4 6.5 2.1 10 2.1 3.9 0 7.4-.7 10.6-2.1 3.2-1.4 5.9-3.4 8.2-6 2.3-2.4 4-5.5 5.2-9zm-99.2-15.1c.6-2.2 1.4-4.2 2.6-5.9 1.2-1.7 2.5-3.2 4-4.4 1.5-1.2 3.2-2.1 4.9-2.8 1.8-.6 3.5-1 5.3-1 2.5 0 4.9.6 7.2 1.8 2.2 1.2 4.2 2.8 5.9 4.9 1.6 2.1 2.8 4.6 3.6 7.4h-33.5zm32.6 15.1c-1.4 3-3.4 5.4-6 7-2.6 1.6-5.7 2.5-9.3 2.5-2.1 0-4.2-.4-6.2-1.1-2-.8-3.8-1.9-5.5-3.3-1.7-1.5-3-3.3-4.1-5.4-1.1-2.1-1.8-4.5-2.1-7.2h43.3c0-3.7-.5-7-1.4-10.1-.9-3.1-2.2-5.8-3.9-8.1-1.7-2.4-3.6-4.4-5.8-6-2.2-1.6-4.6-2.9-7.1-3.8-2.5-.8-5.1-1.3-7.8-1.3-3.6 0-7 .7-10.1 2.1-3.1 1.4-5.9 3.4-8.2 5.8s-4.2 5.4-5.6 8.6c-1.3 3.3-2 6.8-2 10.5 0 3.8.7 7.3 2.1 10.6 1.3 3.3 3.2 6.1 5.6 8.6 2.4 2.4 5.2 4.3 8.4 5.7 3.2 1.4 6.7 2.1 10.4 2.1 4 0 7.6-.7 10.8-2 3.2-1.3 6-3.3 8.3-5.8 2.3-2.6 4-5.7 5.3-9.4h-9.1zm-52.3 16h10.4l-18.5-26.6 17.3-24.9h-10.4l-12 18.4-12-18.4h-10.4l17.2 24.9-18.4 26.6h10.4l13.2-20.1 13.2 20.1z"/><path fill="#F0851A" d="M383.8 353h-8.5v10.1h8.5z"/></svg>