<svg xmlns="http://www.w3.org/2000/svg" viewBox="0 0 282.42 57.86"><path d="M271.41 33.45l11 23.76h-8L264.87 37h-12.51v20.29h-7.78L244.52 11h7.78v18.92h12.52L273.69 11h8l-10.28 22.45zM207.25 37v13.87l26.32-.06v6.49l-34.1.07-.11-46.28 33.31-.09-3.67 7.12-21.75.05V30.1l20.16-.05-3.65 6.95h-16.51zM152.39 18.1v-6.87l38.61-.09-3.57 6.86h-12.41l.09 39.41h-7.78l-.09-39.42h-14.85zM134.3 0l-3.68 6.86h-19L115.24 0zM111.13 48.09l19.41-36.82h11l.11 46.29h-7.39l-.06-36.76H133l-.38.7-19 36.09h-11l-.11-46.29h7.39l.1 36.07v.72zM62.73 37.49h14.52L71.31 19h-2.79zm1.11-26.06h12.45l15.53 46.22h-8l-4.28-13.26h-19l-4.18 13.3h-7.78zM39.82 11.48l-11.94 22.4 13 23.89h-8.13L21.47 37.34h-2.2L8.42 57.84 0 57.86 13 34 .93 11.56H9l10.29 19h2.2l10.1-19z" fill="#db3a2f"/></svg>