<?xml version="1.0" encoding="utf-8"?>
<!-- Generator: Adobe Illustrator 22.0.1, SVG Export Plug-In . SVG Version: 6.00 Build 0)  -->
<svg version="1.1" id="Layer_1" xmlns="http://www.w3.org/2000/svg" xmlns:xlink="http://www.w3.org/1999/xlink" x="0px" y="0px"
	 viewBox="0 0 28 28" style="enable-background:new 0 0 28 28;" xml:space="preserve">
<style type="text/css">
	.st0{fill:#FFFFFF;}
</style>
<title>ic_14</title>
<desc>Created with Sketch.</desc>
<g id="Page-1" opacity=".5">
	<g id="_x31_366-Vacancy" transform="translate(-235.000000, -3037.000000)">
		<g id="Group-10-Copy" transform="translate(0.000000, 2064.000000)">
			<g id="Group-2" transform="translate(233.000000, 128.000000)">
				<g id="Group-4-Copy-13" transform="translate(0.000000, 843.000000)">
					<g id="ic_14">
						<polygon id="Fill-2" class="st0" points="30,6 26,2 24.1,3.9 28.1,7.9 						"/>
						<polygon id="Fill-3" class="st0" points="2,26 6,30 7.9,28.1 3.9,24.1 						"/>
						<path id="Fill-4" class="st0" d="M25,15l-8-8l2-2l8,8L25,15z M13,27l-8-8l2-2l8,8L13,27z M20.6,3.3c-0.5-0.5-1-0.7-1.6-0.7
							c-0.6,0-1.2,0.2-1.6,0.7l-2,2c-0.4,0.4-0.7,1-0.7,1.6c0,0.6,0.2,1.2,0.7,1.6l3.1,3.1l-6.7,6.7l-3.1-3.1
							c-0.4-0.4-1-0.7-1.6-0.7s-1.2,0.2-1.6,0.7l-2,2c-0.9,0.9-0.9,2.4,0,3.3l8,8c0.4,0.4,1,0.7,1.6,0.7c0.6,0,1.2-0.2,1.6-0.7l2-2
							c0.9-0.9,0.9-2.4,0-3.3l-3.1-3.1l6.7-6.7l3.1,3.1c0.4,0.4,1,0.7,1.6,0.7s1.2-0.2,1.6-0.7l2-2c0.9-0.9,0.9-2.4,0-3.3L20.6,3.3z
							"/>
					</g>
				</g>
			</g>
		</g>
	</g>
</g>
</svg>
