<svg xmlns="http://www.w3.org/2000/svg" width="32" height="28" viewBox="0 0 32 28">
    <g fill="#FFF" fill-rule="evenodd" opacity=".5">
        <path d="M10.667 23.333h10.666v-2.666H10.667z"/>
        <path d="M2.667 24.667V11.333h26.666l.002 13.334H2.667zm26.666-16h-12V7.333c0-.734.599-1.333 1.334-1.333H20c2.205 0 4-1.795 4-4V.667h-2.667V2c0 .735-.598 1.333-1.333 1.333h-1.333c-2.206 0-4 1.795-4 4v1.334h-12A2.67 2.67 0 0 0 0 11.333v13.334a2.67 2.67 0 0 0 2.667 2.666h26.666A2.67 2.67 0 0 0 32 24.667V11.333a2.67 2.67 0 0 0-2.667-2.666z"/>
        <path d="M9.333 14a1.333 1.333 0 1 1-2.666 0 1.333 1.333 0 0 1 2.666 0M13.333 14a1.333 1.333 0 1 1-2.666 0 1.333 1.333 0 0 1 2.666 0M17.333 14a1.333 1.333 0 1 1-2.666 0 1.333 1.333 0 0 1 2.666 0M21.333 14a1.333 1.333 0 1 1-2.666 0 1.333 1.333 0 0 1 2.666 0M25.333 14a1.333 1.333 0 1 1-2.666 0 1.333 1.333 0 0 1 2.666 0M9.333 18a1.333 1.333 0 1 1-2.666 0 1.333 1.333 0 0 1 2.666 0M13.333 18a1.333 1.333 0 1 1-2.666 0 1.333 1.333 0 0 1 2.666 0M17.333 18a1.333 1.333 0 1 1-2.666 0 1.333 1.333 0 0 1 2.666 0M21.333 18a1.333 1.333 0 1 1-2.666 0 1.333 1.333 0 0 1 2.666 0M25.333 18a1.333 1.333 0 1 1-2.666 0 1.333 1.333 0 0 1 2.666 0"/>
    </g>
</svg>
