<svg xmlns="http://www.w3.org/2000/svg" width="28" height="28" viewBox="0 0 28 28">
    <g fill="#FFF" fill-rule="evenodd" opacity=".5">
        <path d="M14 18c-2.205 0-4-1.795-4-4s1.795-4 4-4 4 1.795 4 4-1.795 4-4 4m0-10.667A6.674 6.674 0 0 0 7.333 14 6.674 6.674 0 0 0 14 20.667 6.674 6.674 0 0 0 20.667 14 6.674 6.674 0 0 0 14 7.333M12.667 4.667h2.666v-4h-2.666z"/>
        <path d="M11.333 22h5.334v-2.667h-5.334zM11.333 26h5.334v-2.667h-5.334z"/>
        <path d="M12.667 27.333h2.666v-2.666h-2.666zM.667 15.333h4v-2.666h-4zM8.344 6.458L5.516 3.63 3.63 5.514l2.828 2.83zM23.385 15.333h4v-2.666h-4zM19.708 6.458l2.828-2.829 1.886 1.885-2.828 2.83z"/>
    </g>
</svg>
