<svg xmlns="http://www.w3.org/2000/svg" width="95" height="129" viewBox="0 0 95 129">
    <g fill="#EB9617" fill-rule="nonzero">
        <path d="M53.496 77.093c-6.284-.007-11.953 3.797-14.362 9.639-2.41 5.84-1.086 12.568 3.355 17.043a15.458 15.458 0 0 0 16.928 3.397c5.806-2.419 9.592-8.12 9.592-14.445-.01-8.623-6.946-15.614-15.513-15.634zm0 25.854c-4.109.008-7.817-2.478-9.394-6.297a10.27 10.27 0 0 1 2.19-11.144 10.106 10.106 0 0 1 11.068-2.224c3.796 1.581 6.272 5.31 6.272 9.445-.005 5.635-4.537 10.206-10.136 10.22zM53.496 112.762a2.698 2.698 0 0 0-2.689 2.707v3.68a5.89 5.89 0 0 1-1.837 4.267 2.717 2.717 0 0 0-.809 2.602 2.7 2.7 0 0 0 1.851 1.99c.928.279 1.934.034 2.632-.64a11.338 11.338 0 0 0 3.54-8.219v-3.68a2.698 2.698 0 0 0-2.688-2.707zM69.207 57.247a24.882 24.882 0 0 0-13.023 3.609V39.692h8.066c10.89 0 19.717-8.885 19.717-19.846C83.967 8.886 75.14 0 64.25 0H53.496a2.698 2.698 0 0 0-2.689 2.706 2.698 2.698 0 0 0 2.689 2.707H64.25c7.92 0 14.34 6.462 14.34 14.433 0 7.972-6.42 14.434-14.34 14.434H4.203a2.698 2.698 0 0 0-2.688 2.706 2.698 2.698 0 0 0 2.688 2.706h46.604v25.8c-.618 3.067 3.863 3.97 5.171 2.31a19.69 19.69 0 0 1 24.96-1.262c7.564 5.59 10.188 15.758 6.283 24.346a2.721 2.721 0 0 0 .19 2.757 2.682 2.682 0 0 0 2.495 1.152 2.69 2.69 0 0 0 2.2-1.653 25.492 25.492 0 0 0-1.71-24.242c-4.633-7.261-12.616-11.652-21.19-11.653zM4.651 21.2c0 .747.602 1.352 1.345 1.352H16.75c.743 0 1.345-.605 1.345-1.353v-2.706h3.36a.674.674 0 0 0 .673-.677V7.668c0-.747-.602-1.353-1.345-1.353h-2.688v-4.06c0-.747-.602-1.353-1.345-1.353H5.996c-.743 0-1.345.606-1.345 1.353v4.06H1.963c-.743 0-1.345.606-1.345 1.353v10.148c0 .374.301.677.673.677h3.36v2.706zM6.668 2.931h9.41v3.383h-9.41V2.932zm0 10.148h9.41v7.443h-9.41V13.08zm-2.689-2.706a.674.674 0 0 1-.672-.676c0-.374.301-.677.672-.677.371 0 .672.303.672.677 0 .373-.3.676-.672.676z"/>
        <path d="M8.684 14.434h5.377v1.353H8.684zM8.684 17.14h5.377v1.353H8.684zM15.8 50.914a1.34 1.34 0 0 0-.95-.397H3.307c-.742 0-1.344.606-1.344 1.354v18.944c0 .747.602 1.353 1.344 1.353H19.44c.743 0 1.344-.606 1.344-1.353V56.489c0-.358-.142-.702-.394-.956L15.8 50.914zm2.295 18.548H4.65V53.224h9.644l3.8 3.825v12.413z"/>
        <path d="M7.34 61.343h8.066v1.353H7.34zM7.34 57.283h8.066v1.353H7.34zM7.34 65.402h8.066v1.353H7.34zM77.972 81.577l-4.804 1.614 1.9 5.738h3.038c.58 2.52.58 5.14 0 7.659h-3.038l-1.9 5.737 4.804 1.615a.688.688 0 0 0 .788-.28 20.419 20.419 0 0 0 0-21.804.688.688 0 0 0-.788-.28zM7.34 96.976h8.066v1.353H7.34zM7.34 92.916h8.066v1.353H7.34z"/>
        <path d="M15.8 82.488a1.34 1.34 0 0 0-.95-.397H3.307c-.742 0-1.344.606-1.344 1.353v18.944c0 .747.602 1.353 1.344 1.353H19.44c.743 0 1.344-.606 1.344-1.353V88.063c0-.359-.142-.703-.394-.956l-4.589-4.62zm2.295 18.547H4.65V84.797h9.644l3.8 3.825v12.413z"/>
        <path d="M7.34 88.857h8.066v1.353H7.34z"/>
    </g>
</svg>
