<svg xmlns="http://www.w3.org/2000/svg" width="20" height="27" viewBox="0 0 20 27">
    <g fill="#FFF" fill-rule="evenodd" opacity=".5">
        <path d="M19.04.5A1.334 1.334 0 0 0 18 0H2A1.333 1.333 0 0 0 .7 1.622l2.667 11.999 2.602-.577L3.662 2.666H7.6l1.067 5.333h2.667L12.4 2.666h3.938l-2.306 10.379 2.603.577 2.667-12A1.333 1.333 0 0 0 19.04.499"/>
        <path d="M10 21.333c.204 0 .41.047.596.142l2.74 1.369-.63-2.52a1.334 1.334 0 0 1 .185-1.064l1.284-1.927h-1.508c-.506 0-.967-.285-1.194-.737L10 13.648l-1.473 2.948a1.335 1.335 0 0 1-1.194.737H5.825L7.11 19.26c.208.313.276.699.184 1.064l-.629 2.52 2.74-1.37a1.32 1.32 0 0 1 .596-.14m5.333 5.333c-.202 0-.408-.047-.596-.14L10 24.159l-4.737 2.368a1.334 1.334 0 0 1-1.89-1.516l1.19-4.762-2.339-3.51a1.333 1.333 0 0 1 1.11-2.072h3.175l2.298-4.596c.452-.903 1.934-.903 2.386 0l2.298 4.596h3.176a1.334 1.334 0 0 1 1.109 2.073l-2.339 3.51 1.19 4.76a1.331 1.331 0 0 1-1.294 1.657"/>
    </g>
</svg>
