<svg xmlns="http://www.w3.org/2000/svg" width="29" height="30" viewBox="0 0 29 30">
    <g fill="#FFF" fill-rule="evenodd" opacity=".5">
        <path d="M23.977 28.333a1.333 1.333 0 1 0 2.665.001 1.333 1.333 0 0 0-2.665 0M2.643 28.333a1.333 1.333 0 1 0 2.666.001 1.333 1.333 0 0 0-2.666 0"/>
        <path d="M3.16 20.333L4.937 15H24.35l1.778 5.333H3.16zm2.15-8h18.666V3H5.31v9.333zm23.51 7.647l-2.177-6.53V1.668c0-.736-.596-1.334-1.334-1.334H3.976c-.736 0-1.333.598-1.333 1.334V13.45L.467 19.979c-.248.744-.147 1.508.277 2.096.423.589 1.115.925 1.899.925h10.666v4H6.643v2.667h16V27h-6.667v-4h10.667c.784 0 1.476-.336 1.9-.925.424-.588.525-1.352.277-2.095z"/>
        <path d="M11.976 19h5.333v-2.667h-5.333z"/>
    </g>
</svg>
