<svg xmlns="http://www.w3.org/2000/svg" width="28" height="20" viewBox="0 0 28 20">
    <g fill="none" fill-rule="evenodd" opacity=".5">
        <path d="M-2-6h32v32H-2z"/>
        <path fill="#FFF" fill-rule="nonzero" d="M10 12.333C6.88 12.333.667 13.893.667 17v2.333h18.666V17c0-3.107-6.213-4.667-9.333-4.667zm-6.213 4.334C4.907 15.893 7.613 15 10 15s5.093.893 6.213 1.667H3.787zM10 10a4.672 4.672 0 0 0 4.667-4.667A4.672 4.672 0 0 0 10 .667a4.672 4.672 0 0 0-4.667 4.666A4.672 4.672 0 0 0 10 10zm0-6.667c1.107 0 2 .894 2 2 0 1.107-.893 2-2 2s-2-.893-2-2c0-1.106.893-2 2-2zm9.387 9.08C20.933 13.533 22 15.027 22 17v2.333h5.333V17c0-2.693-4.666-4.227-7.946-4.587zM18 10a4.672 4.672 0 0 0 4.667-4.667A4.672 4.672 0 0 0 18 .667c-.72 0-1.387.173-2 .466a7.254 7.254 0 0 1 1.333 4.2c0 1.56-.493 3.014-1.333 4.2.613.294 1.28.467 2 .467z"/>
    </g>
</svg>
