<svg xmlns="http://www.w3.org/2000/svg" width="28" height="28" viewBox="0 0 28 28">
    <g fill="none" fill-rule="evenodd">
        <path d="M-2-2h32v32H-2z"/>
        <g fill="#FFF" opacity=".5">
            <path d="M10 10.667c.184 0 .333.149.333.333 0 .368-.666.368-.666 0 0-.184.149-.333.333-.333m0 2.666A2.336 2.336 0 0 0 12.333 11 2.336 2.336 0 0 0 10 8.667 2.336 2.336 0 0 0 7.667 11 2.336 2.336 0 0 0 10 13.333"/>
            <path d="M14 24.667C8.119 24.667 3.333 19.88 3.333 14S8.12 3.333 14 3.333 24.667 8.12 24.667 14 19.88 24.667 14 24.667m0-24C6.648.667.667 6.648.667 14c0 7.353 5.981 13.333 13.333 13.333S27.333 21.353 27.333 14C27.333 6.648 21.352.667 14 .667"/>
            <path d="M14 19.333a5.296 5.296 0 0 1-4.265-2.13l-2.131 1.604A7.941 7.941 0 0 0 14 22a7.937 7.937 0 0 0 6.4-3.199L18.267 17.2A5.288 5.288 0 0 1 14 19.333M15.333 12.667h5.334V10h-5.334z"/>
        </g>
    </g>
</svg>
