<svg xmlns="http://www.w3.org/2000/svg" xmlns:xlink="http://www.w3.org/1999/xlink" width="24" height="24" viewBox="0 0 24 24">
    <defs>
        <path id="a" d="M0 0h11.888v10.678H0z"/>
    </defs>
    <g fill="none" fill-rule="evenodd" opacity=".25">
        <path fill="#262C37" fill-rule="nonzero" d="M1 0h22a1 1 0 0 1 1 1v22a1 1 0 0 1-1 1H1a1 1 0 0 1-1-1V1a1 1 0 0 1 1-1z"/>
        <g transform="translate(5.5 7)">
            <mask id="b" fill="#fff">
                <use xlink:href="#a"/>
            </mask>
            <path fill="#FFF" d="M10.961.939c-.002.029.004.025-.009.08v.006L9.26 9.68c-.007.013-.02.04-.053.067-.036.028-.064.046-.213-.013L6.291 7.663 4.66 9.151l.343-2.19 4.416-4.116c.182-.17.121-.205.121-.205.013-.208-.275-.061-.275-.061l-5.568 3.45-.002-.01-2.669-.898v-.002l-.007-.002a.128.128 0 0 0 .015-.005l.014-.007.014-.006 4.805-2.024 3.375-1.422 1.674-.7c.037-.014.02-.014.046-.014M11.007 0a1.357 1.357 0 0 0-.426.102h-.002c-.13.051-.75.313-1.692.707L5.511 2.232.707 4.256l.029-.01s-.164.053-.336.171a.929.929 0 0 0-.268.26.761.761 0 0 0-.127.506c.041.33.256.53.41.638.155.111.303.163.303.163h.004l2.233.752c.1.321.68 2.23.82 2.669.082.262.162.427.262.552a.647.647 0 0 0 .173.16.486.486 0 0 0 .113.048L4.3 10.16c.007.002.012.007.018.01a.3.3 0 0 0 .053.01c.354.107.638-.113.638-.113l.016-.012 1.319-1.2 2.209 1.695.05.021c.461.202.927.09 1.174-.109.248-.2.345-.456.345-.456l.016-.04 1.707-8.748c.049-.216.061-.418.008-.615a.827.827 0 0 0-.846-.602" mask="url(#b)"/>
        </g>
    </g>
</svg>
